<svg id="Layer_1" data-name="Layer 1" xmlns="http://www.w3.org/2000/svg" viewBox="0 0 94 88.47"><title>alert</title><path d="M46.85,56.43a5.35,5.35,0,0,0-5.42,5.38,5.12,5.12,0,0,0,5.28,5.25,5.05,5.05,0,0,0,5.47-5.19A5.31,5.31,0,0,0,46.85,56.43Z"/><path d="M42.87,47.27a22.49,22.49,0,0,0,1,4.42,2.47,2.47,0,0,0,2.57,1.57,2.74,2.74,0,0,0,2.84-1.48,7.7,7.7,0,0,0,.75-2.3c.69-5.89,1.32-11.79,2-18a18.17,18.17,0,0,0-.72-4.17A4.38,4.38,0,0,0,48.9,25c-3.3-1.13-6.61.49-7.19,3.34a9.2,9.2,0,0,0-.14,2.5C42,36.34,42.37,41.81,42.87,47.27Z"/><path d="M46.86,9.71A35.44,35.44,0,1,0,82.3,45.15,35.48,35.48,0,0,0,46.86,9.71Zm0,61.52A26.08,26.08,0,1,1,72.94,45.15,26.11,26.11,0,0,1,46.86,71.23Z"/></svg>