<svg id="Layer_1" data-name="Layer 1" xmlns="http://www.w3.org/2000/svg" viewBox="0 0 303.28 319.04"><title>apolo</title><path d="M89.15,94.77c.63,2.4,2.71,3.88,2.23,6.27-.37,1.82-2.27,2.72-1.62,5.06.48,1.71,2.81,3.08,4.28,4,2.6,1.7,3.87,3.54,5.56,6.13,1.31,2,2.47,4.76,4.5,6,1,.62,2.42.56,3.45,1.11,1.56.83,1.25.53,1.8,2.3,1.55,5,2.47,9.95,5.11,14.62,2.06,3.63,6.68,4.88,7.5,8.93.68,3.32-.18,5.16-1.64,8.05-1.24,2.46-1.83,5-2.84,7.54-1.92,4.81-6.88,7.93-8.64,12.85-.78,2.19-1.65,4.31.07,6.08s3.51,1.85,4.62,4.43a11,11,0,0,0,1.77-5.52c-.12-1.4-2.2-2.28-2.33-4.08s.8-2.5,1.8-3.82c1.29-1.71,1.54-3,2.64-5,1.73-3,6.93-7.73,6.64-1.24-.14,3-2.59,4.72-3,7.54a1.74,1.74,0,0,1,2.29-.52c-1.54,1.29-3.4,1.5-4.58,3.29,1,0,2.93-1.48,4.16-1.78,2-.48,4-.23,6-.72,1.15-.29,3.23-.74,4.16-1.5.48-.39,2-3.09,1.62-3.69-1.65.4-1.82,1.91-3.1,2.8-1,.69-3.28.45-4.15,1.24.92-1.4,2-2.35,2.28-4.19.31-2.41-.51-4.07,1-6.62a10.61,10.61,0,0,0,2.85,5.05c.1-1.64-1.78-2.92-1.77-4.62a12.13,12.13,0,0,1,1.38-3.39,28.57,28.57,0,0,0,2.11-4.35c.24-.79.43-4.31,1-4.45,2.37,3.51,3.27,7.25,4.43,11.23,2.3-5.08-3.24-12.73-5.68-17-2.76-4.8-4.26-9.83-6.09-15-4.11-11.67-11-23.57-7.61-36.36-3.27,1.23-5.65,4.88-8.93.83A29.62,29.62,0,0,1,109.4,92c-1.41-3,.91-1.26,2.34-2.09-1.45-.87-1.56-1.31-1.48-2.94,1.14-.09,1.37.77,2.21,1.13a6.57,6.57,0,0,0,3,.56c4.62.1,1.51-1.38.19-3.58-1.49-2.48.17-2.5,1.2-4.37.44-.79.48-3.92,1.87-1.84.3-1,1.78-5.1,3.48-4.13-.32-.18-.09-3.2-.09-3.21.23-1.73,1.85-3.19,1.9-4.85-1.64.4-3.48,2.31-4.27,3.79-.2.38-.34,1.54-.51,2-.33.85-2,2.44-2,3.28,0-1.18-3.35-.36-4.58-1.49,1.92-.6,5.84-1.43,5.29-4.34-1.54,1.85-4.94,3.38-7,2.28a8.54,8.54,0,0,0,4.65-2.57c-3.35,1.7-5.48,3.15-7.57-.93a15,15,0,0,1,3,.3c.19-1.45.93-3.63,2.09-4.58s2.59-.87,3.74-1.88c2-1.79,2.53-3.62.92-5.79-1.32-1.77-2.24-1.23-2.14-3.47a9.24,9.24,0,0,1,1.92-3.58,15.45,15.45,0,0,1,1.7,4c.65,1.7,1.72,2.25-.69,2.57.3.52.84,2,1.57,2.16,1.21.26,1.49-2.22,2.53-.58.59.93-1.56,3.33-2.14,4.14a24.81,24.81,0,0,0,4.83-5c1.39-1.68,3.24-2.32,4.77-3.86a53.83,53.83,0,0,1,4.5-4.2c1.91-1.56,2.85-4.8,5-5.9-2.11-1-2.44,1.57-3.84,2.55-1.05.74-1.3.28-2.51.58-1,.25-2.22-1.15-.92.87-2.65-.48-6.36-4.73-2.62-7a10.78,10.78,0,0,0,.07,3.26c.2.63,1.37,3.17.72.67.63.32,2.09,2.6,3,1.52-1.56-.64-3.3-2.61-2.81-4.59,1.44.16,2.28,2.09,3.35,2.42,2.32.71,3.77-1.61,5.91-2,1.8-.36,3.14,0,5-.71,2.63-.92,4.87-2.46,7.52-3.32s5.43-1.7,8.13-2.66c2.17-.77,2.46-1.35,1.56-3.68a20.74,20.74,0,0,0-2.43-4.84c-.6-.79-1.75-1.27-2-2.37s.59-.09.91-.69c-.87-.94-3.1-2.06-.81-1.49s3.17,1.12,5.49,1.37c2,.21,5.79,2.58,6.15,4.93-.91.36-1.06.62-2,.32s-1.28-1.9-2-1.61c-1.31.54,1.65,4.09,2.05,4.34.58.37,2.9.47,3.9.65-1.55,1.29-5.38.24-2.53,2.78a2.74,2.74,0,0,1-1.83.14c.9,2.46,3,2.29,5,1.56,1.18-.42,2.24-1.84,3.31-1.84-.62-1.42-2.06-7.7.41-4.65-1.19.56.06,2.48.41,3.57,1.95-1.63,1.89-.95,1.17-2.65-.09-.22-1.18-1.68-1.23-1.73a15.3,15.3,0,0,0-6.43-4.19c1.12-.91,4.42-.3,5.71-.11.85.13,1.65.31,2.49.47.59.11.36-.55.88-.88.86,1.64,2.3,2.08,3.39,3.66,1.27,1.83,2.57,5.7-.57,6.39-1.94.42-2.42-1-4.15.68a14.58,14.58,0,0,1-6.65,3.7,7.86,7.86,0,0,0,5.13.26c1.64-.69,2.26-3.38,4.34-2.56-2.2.3-1.89,3.44-3.69,4.31-1.13.55-3.75-1.25-4.22-.15.61.41,3,1.48,1.9,2.53-.91.83-1.85-.61-2.94-.08q.1,0,0-.07A.51.51,0,0,1,171,43c.62.26,2.31,1.15.78,2.09-.05-.13-.15-.7-.39-.7-.14,3.42,1,2.63,3,4.57.59.57,3,3.19,2.44,3.91,1-.09,3.51,4,3.81,5,.44,1.47.59,1,.15,2.45s.32,1.57-1.67,1.06c.16.64.92,1.13.56,1.87-2.13-1.57-3.82-1.52-6.4-1.52,1.12-1.11,5.89-1.55,4.26-4.16-1.28-2-7.92-.78-9,1-1.26,2.08,2.23,8.11,3.07,10.42.56,1.55,1.13,3.09,1.6,4.67.82,2.77-.11,6.7-4,5.95-2.2-.42-3.57-3.44-6.11-.69-1.33,1.45-1.39,3.09-3.91,2.56.94,4.69,6.82-2.91,8.88-1.73-1.63,1.35-.63,1.77.64,3s3.12,2.52,2.18,4.44c-1.25,2.57-3.34,1.77-5.4,1.46-2.9-.43-5.27,1.26-7.87,2.21-1.11.41-2.7.06-2.74,1.95,0,1.64.48.75,1.36.6a24,24,0,0,0,4.17-1.54c2.85-1.12,4.84-.87,7.86-.59,1.49.14,5.56.24,5,2.81-.46,2.28-4.21,1.1-5.77,1.48-3,.73-.75,1.64,1.16,1.43,2.48-.27,3.85-.63,5,2.22.87,2.24,1.86,5.94.39,7.81-2.11,2.68-4.57,1.56-7.2,2.56-1.75.66-3.22,2.14-5.18,2.72a30.19,30.19,0,0,1-4.86.94,71.29,71.29,0,0,1-17.53-.4c6.23,4,11.8,7.14,19.1,9a61.59,61.59,0,0,0,7.43,1.14c1.55.2,8.77,0,9.51,1.59q.25.07.06-.23c.56.66,2,.68,2.83,1.08a9.76,9.76,0,0,1,3.61,3,12,12,0,0,1,2,8.65,15.45,15.45,0,0,1-2.86,5.57c-.93,1.25-1.23,2.69-2.21,3.6-2.57,2.4-8.34,3.33-11.61,4.54-4.37,1.62-9,2.87-13.24,4.77a43.79,43.79,0,0,0-9.17,5.8c-1.67,1.3-3.4,2.48-5.09,3.75-.38.28-3.16,2.42-2.08,1.84-.23.2-3.09,3.25-2.29,3.52,1.06.36,1.36-1.24,2-2,2.2-2.54,5.57-3.79,7.93-6.2.45,2.39.41.92,1.38-.09a12.81,12.81,0,0,1,3.44-3,48.31,48.31,0,0,1,8.06-3c0,.64-.62,0-.19,1.08l1.22-.62c-.64,1.82-.93,4.12-1.92,5.54-1.18,1.71-2.7,4-4.44,5.12-2.41,1.6-5.34,2.52-7.85,4-.62.38-7.68,3.4-7.68,3.56-.34-.76-3-.15-3,.79.18,2.36,8.7-1.41,9.59-1.89,7.37-4,14.92-7.79,21.51-13-2.23,1.32-4.62,3.11-7.11,3.86-.36-1.06,1-.6,1-1.6a18.11,18.11,0,0,0-.41-1.94c.26-.89,2-1.66,3-2.58,2.35-2.34,5-4.47,7.4-6.58l-.14-.64q.9-.26,1.81-.46a6.61,6.61,0,0,1,3-.29c1.54.28,1.56,1,2.78.37.61-.33,2.1-2.33,2.82-3,1.33-1.17,3.64-2.72,4.41-4.27-.67-.64-1.37,1.76-2.29.71,1.08-1,1.13-2.74,2.13-3.79a20.13,20.13,0,0,1,2.13-1.14c1.25-.92,2.12-2.37,3.29-3.44,3-2.8,4.66-2.38,8.69-3.06,5.5-.93,8-5.84,13.16-7.61,6-2.06,12.49-1.84,18.73-1.8a76.56,76.56,0,0,0-16.17-.19c-6.39.56-12.49,2.36-18.92,2.46-2.9,0-3.37-.16-5.44-1.88-2.23-1.85-3.67-4.63-5-7.15a51.62,51.62,0,0,1-3.76-8c-1-3.06.29-6.6.81-9.68,1.67-9.89,1.66-22.52,9.18-29.81A7,7,0,0,0,192.6,63c-.49-2.43-3.27-3-4-5.72-.34-1.2-.27-2.27-1-3.39-.55-.87-2.1-1.58-2.44-2.48-.67-1.78,1.46-4.61,1.55-6.74.3-6.53-1.1-13-2.42-19.29-.58-2.78.16-5.58-.73-8.31-.81-2.49-2.8-4.15-3.88-6.43-.58-1.24-.29-1.33-1.36-2.18-.62-.49-1.56-.66-2.29-1.28-1.94-1.65-3.23-3.26-5.8-4.1a13.24,13.24,0,0,0-7.55,0A20.07,20.07,0,0,1,159,4c-1.74.1-3.2-.79-4.88-.86-1.48-.06-2.31.81-3.56,1-1.42.19-1,.1-2.5-.59-2.77-1.28-4.62-.46-7.38-.74-2.09-.22-4.06-1.54-6.33-1.77a20.92,20.92,0,0,0-9.55.89,24.33,24.33,0,0,0-4.17,1.71c-1.27.8-2,2.29-3.2,3.36-2.2,2-4.3,2.25-7,3.22-3.12,1.14-2,3.35-2.24,6.14-.21,2.61-2.47,4.29-2.91,6.52-.5,2.57,1.76,4.67,2.26,7,.71,3.36-1.49,6-3.4,8.53-4.12,5.37-6.84,12.47-9.49,18.68-2.57,6-4.73,12.49-3.87,18.7.22,1.61-.14,3.25.12,4.82.31,1.83.85,2.29.15,4.14-1.37,3.58-3,6-2,10Zm25.31,79.51s.1,0,0,0Zm19.25-1.69ZM129.81,47.18c-.36.17-.51.06-.56-.43Zm43.57-20.44.63.35c-.23.28-.72-.18-.63-.35C173.59,26.86,173.37,26.77,173.38,26.74Zm-1.36.46c1.23-.31,2.47,2.15.22,1.9q1.11-.63.24-1.61C171.94,28.56,169.56,27.83,172,27.21Zm.7,122.41a4.89,4.89,0,0,1,.56-.08l-.56.08ZM187.5,55.8c.18.68-1.94.89-2.16.84l2.16-.84C187.52,55.86,186.81,56.06,187.5,55.8Zm-4.69-21Zm-1.63,8.85q.08-.81.79-.36c.05-.68,2-3.16,2.56-1.51s-2.62,3.76-4,2.69l.6-.82Zm-1.41,43.43a36.7,36.7,0,0,0-1.14,3.6c-.3,1.46.18,3.51-.4,4.84-.78,1.82-1.65,1.6-2.75-.11s-.27-2.9.24-4.74c.36-1.31.38-2.6.75-3.86s1.59-2.25.93-3.51c-.27-.52-1.09-.36-1.31-.67-1-1.38-.44-2.28-.25-3.89s-1-3.72-.63-5.07c-2.29-2.19-4.69-10-.24-11.21,1.5-.39,3.21.11,3,2s-3.9,4.34,1,3.42c.7,1.85-4,1.66-1.45,4.18,1.19,1.18,2.51,1.34,3.41,3.11C182.8,78.85,181.58,83.66,179.76,87.08Zm3.46-33.32.72-.08C183.69,54.2,183.5,54.12,183.22,53.75Zm1.93-9.3c-.3.82-4.84,5.88-5.39,2.31.26-.52,2.15.21,2.72,0,1.11-.36,1.78-1.65,2.67-2.34C184.74,45.57,184.93,44.62,185.15,44.46Zm-.61-8c.41.6-.84,1.1-.8,1.84a2.67,2.67,0,0,0-2.34-1.11,3,3,0,0,1,.57-1.88C182.87,36.54,183.27,34.6,184.54,36.44ZM179.68,16c.1-.15,0-1.55.09-1.8.75.3,2.37,4.61,2.13,5C180.3,21.9,178.74,17.54,179.68,16Zm-77,87.71c-.69-.47-1.43-3.7-2-4.66,1.8-1,2.67.4,2.73-2.53a5.53,5.53,0,0,0-.89-2.81c-1.31-2.62-2.21-4.25-.52-7.11,1.42,1.34.21,4.17,2.26,5.56.59.4,1.64.29,2.11.74,1.09,1.05.34,2.08.35,2.79C106.68,97.66,106,106,102.64,103.73Zm.1-15.27q.12-.49.6.05-.12.5-.6-.05C102.77,88.4,102.91,88.54,102.74,88.46Zm4-6.52c-.57-1.68-1.88-3.08-2.88-4.52,1.74.29,6,6.16,3.35,6.87A3.31,3.31,0,0,0,106.72,81.94Zm-.65,19.46Zm.08.45-.32.6C105.8,102,105.81,102,106.15,101.85Zm3.93,17.26c-1.82-2.45-4.61,1.17-5.72.28s2.22-2.14,2.77-2.19,4.49.73,3.74,1.89A.49.49,0,0,1,110.08,119.12Zm-2.71-6c1.05-.37,2.24,2.38,3.29,2.63,2.81.68,2.57-5.33,4.94-3.3,2.57,2.2-2,5.5-4.15,5.26-3.44-.38-2.78-2.52-4.09-4.6C107.85,113,107.38,113.14,107.37,113.13Zm-1.13-2.41c.23-.49.67-.7,1.43-.59Zm6.15,13.21c-.17-.12-2-3.67-2.07-3.48.17-.57,3.13-1.47,4.08-.84C116.46,121,115.17,126,112.39,123.93Zm15.75,36.74c.42-.49,3-4.45,3.83-3.8a47,47,0,0,0-3,5.14c-.25.52-1.79,4.65-1.34,1.71-.87.94-1.31,2.07-2.71,2.32A25.49,25.49,0,0,1,128.14,160.67ZM120,124.34c3.11.9,4.89,1.43,6,4.69.79,2.28,1.39,4.89.71,6.58-1.06,2.65-4.35,4.17-6.79,2.44-1.15-.81-2.28-2.7-.06-3,.49-.06,4.58,2.56,3.17-1.48-.32-.92-2.65-2-3.48-2-1.1,0-1.25.92-1.95,1-.45,0-.85-.57-1.18-.5-.14,0-1.69.67-1.76.67-2.68-.08-.37-1.6.87-2.5,1.88-1.34,5.82-2.07,7.84-.53-1.45-1.95-3.89-2.08-6.2-1.95-.59,0-3.71,1.08-3.75,1C111,125.95,118.6,123.92,120,124.34Zm-3-21.39c.78-.18-.27,2.66-.35,2.82a7.78,7.78,0,0,1-3.54,3.64,9.11,9.11,0,0,1-3.74.26c-1-.07-2-.53-3.05-.27-.68.17-1.27,1.06-2,1.17-3.39.5,1.06-4.18,3.06-4.48,1.65-.24,3.49.61,5.14-.16S115,103.4,117,102.94Zm-6.36-1c1.25-.25,2.88-4.12,4.12-1.25.65,1.5-1.9,2.45-3.06,3.12-1.84,1.06-4,.7-5.92,1.72-.75.4-2.43,2.66-2.86,2.66,1.24-4.25,3.68-5.45,7.72-6.26Zm-.45-20.55c.37-.26.52-.2.58.23Zm4.4-.12.76-1c0,.77,0,1.08-.64,1.56Zm-.31-.68q.45.07,0,.55-.44-.07,0-.55C114.37,80.57,114.25,80.71,114.31,80.55Zm.94,6c1,.78,1.77.5,2.05,1.93a6.18,6.18,0,0,1-3-.3c-.83-.44-2.76-2.44-2.55-3.33.91-3.82,2.63,1,3.46,1.7Zm-6.5-9.64c5.75-2.76,5.92,7.21,2.86,5.07-1.07-.75-.05-2.31-1.13-3.27-.7-.62-1.74-.18-2.42-.4-.52-.17-2.16.52-1.28-.73a9.06,9.06,0,0,1,2-.67C108.87,76.89,108.32,77.07,108.75,76.95Zm-.07-12.23c-.14-.36.53-.61.66-.26l-.66.26C108.65,64.65,108.9,64.63,108.68,64.72ZM123,48.32c-.16,0-2.16-.09-2-.23.09.12,1.05,1.07.71,1.36-.54.47-1.18-1-1.33-1.14-1-1.28-.92-2.52-.39-4a29.89,29.89,0,0,1,2.64-4.61c.3-.53,1.29-2.88,1.7-3.09,1.83-.91.14,4-.1,4.37s-3.08,3.67-2.51,3.95C123.35,41.46,124.54,48.68,123,48.32Zm11.1-8c-.72.94-2.88-1.3-3.3-1.73-.24,1.09.9,1.28,1,2.22-2.57-.31-3.44-6.19-1.59-7.71C130.87,33.36,134.3,40.1,134.12,40.34ZM137.65,39c-.72-.07-1,.95-1.62,1.13a8.9,8.9,0,0,1-.88-4.26c1.58,1,3.58.58,4.91,1.43-1.48.57-.47.48-.13,1.4a6.7,6.7,0,0,0-2.29.29Zm.06-3.58a1.67,1.67,0,0,1,.28.76c-1.12.27-2,.3-2.42-.95A2,2,0,0,1,137.71,35.38Zm-.21-1.88c1.28-1,2.43,1.22,3.14,2-.87.75-2.67-1.58-3.14-2C138,33.11,138.28,34.19,137.51,33.5Zm6.84,6.29c-1.81,1.05-2.48,1.43-4.67,0,1.13-.32,2.16-.11.72-1a14.74,14.74,0,0,1,4.73.71ZM159,27Zm-2.15-4.82-.34.61c-.16-.23-1.42-1.32-1.37-1.5C155.41,21.3,157.3,21.39,156.81,22.16Zm12.9,3.24c-.1.82-2.6-.34-2.53-1.06S169.81,24.61,169.72,25.4Zm8.49-1.74c-.77-.19-.51-.71-.9-1a5,5,0,0,0-1.63-1c2.07-1,2.52.39,2.52,2C177.21,23.41,178.21,23.06,178.21,23.66Zm.15-3.56.11.82c-1,.09-1.6-.35-3.12.08a23.8,23.8,0,0,1-4.53,1.08,6.54,6.54,0,0,1-3.88-.49c-1.38-.8-.93-2.11-1.86-2.76,1-.7,2.5.55,3.55.75a18.51,18.51,0,0,0,4.57-.07c2.17-.14,3.06-.35,5.15.59C178.39,20.35,177.77,19.84,178.35,20.1Zm-2.26-9.56c3.12-1.73.72,2.41.22,3.09a8.46,8.46,0,0,1-5.6,3.64c-1.69.27-4.16.11-5.62-1-2.33-1.77-.46-1.93,1.6-2.43-1.94-1.39-2.55,1.19-4.6-1.18,1.93-1.94,5.77-1.38,8.13-.75C172.85,12.6,173.68,11.87,176.1,10.54Zm-17.4-3.9Zm.28.57c-.23-1.67,5-3.28,6.21-3.44-.34,1.15-1.7,1.77-2.41,2.69,1.48.88,3-2.13,3.08-2.18,1-.41,2.3,0,3.82.84a12.11,12.11,0,0,0,1.57,1.06c.25.1,2.08.12,2.18.18,1.85,1.2-.09,2.14-.6.95-1.55.79.46,1.61,1.21,2-2.18,1-5.23-.43-7.55-.42-2.81,0-4.38,1.18-6.52,2.72,1.12,1,2.18,1.61,2.47,3.11.19,1-1.52.08-.58,1.91a3.31,3.31,0,0,1-1.22-.91,3,3,0,0,1,.61,2.2c-.5.23-.76-.47-1.25,0a4.75,4.75,0,0,0,1.49,1.79c-.89,1.39-4.47,0-5.28-1.07-2-2.51,1.55-2.25,3.16-1.45-1.93-2.3-4.75.5-6-1.78.84-.59,5.45-1.57,5.75-2.19-1.18-.58-2.5,0-3.6.4s-5.11,1.36-2.84-.85c2.44-2.38,7.11,0,6.35-5.54ZM152.48,5c.7-.62,1.41-.67,1.71.23.18.54-1.64,1.9-1.85,2.4,2.48.51,2.45-2.32,3.93-2.3,1.89,0-.16,2.49-.38,3a3.1,3.1,0,0,0,1.88-.89A4.48,4.48,0,0,1,155,9.73c-.73.27-2.62,1.46-3.46,1.43-2.79-.11.33-3.25-1.71-3.72.88-.8,1.76-1.62,2.65-2.41Zm-9,13.22c2.94-.84.15-1.89.16-2.75,0-1.33,1.59-.86,1.59-2.28,0,.09-.83.25-.86.19s-.89-1.21-1.14-1.6a3.47,3.47,0,0,1-.89-2.53c-.06-.8-.66-3.11.23-4,.66-.65,3-.66,3.77-.19-.47,1.44.47,6.8,1.7,7.52-.22-.75-.94-5.35.2-5.6a32.64,32.64,0,0,1,3,7,9.88,9.88,0,0,1,.64,1.29,1.41,1.41,0,0,1-.58.68,3.47,3.47,0,0,0,.68,2.17,1,1,0,0,0-1.38.67,11.25,11.25,0,0,1-1.21-.46c-.94.07-2.31-.5-2.12.69q-1.18.35-.79-.65c-1.12.31-.29-.6-1.64-.39-.47.07-1,.75-1.52.89s-4.94-.11-4.06-.84c.18-.15,3.51.4,4.23.2Zm-1-5.14q0-.51.36-.58.56.45.14.95Q142.43,13.69,142.42,13.12Zm-1.87,9.4q-.67.55-.91-.13c-.06-.19.82-.28.91.13C140.32,22.6,140.53,22.45,140.55,22.52Zm-2-18.06a25.73,25.73,0,0,1,3.17,3.16c-1.26,1.11-4.64-3.78-5.05-4.52a4.58,4.58,0,0,1,1.88,1.36ZM127.25,1.95c.56-.08,2-.29,2.25.44.1.27-2.33.3-2.25-.44C127.5,1.91,127.24,2,127.25,1.95Zm-1.12,1.88.66.17c-.07.25-.72.07-.66-.17C126.35,3.88,126.12,3.87,126.13,3.82ZM109.38,20.13c.4-.6,1.47-1.75,2.32-1.53.29,1.53,2.73.79,3.83,1.68-.49.53-6.19,3-3.64,4.51a1.94,1.94,0,0,1,1.68-1.59,3.66,3.66,0,0,0-1.41,2.93c-.11,1,1.08,3.34-1.31,2.17-3-1.45-3-5.81-1.47-8.16ZM93.58,66.27a30.55,30.55,0,0,1,2.17-4.91,54.5,54.5,0,0,0,1.94-5.57c1.29-3.35,3.25-6.4,4.76-9.6.17-.35.89-.5,1-.77a16.32,16.32,0,0,0,.26-2.24c.18-.92.31-2.2,1.1-2.85s1.74-.19,2.34-.53c1.26-.7-.29.65,1.14-1,2-2.37.52-4.13,4.24-3.46-.2-1.49-2.24-.64-1.22-2.17,1.26-1.9,3.07-.32,4-3.12.55-1.74-.85-8.31,3.33-4.44.16-1.15-2-3.1-2.77-2.22a43.2,43.2,0,0,1,.31-5.38c-1.87-.24-6.37-.46-5.08-3.83-2.53-.27,2.57-6,4.83-3.71,2.85,2.93-3.93,2.53-4.39,3.44,2.08,2.11,7.44-2.17,5-3.8.77-.51,1.84-2.94,2.39-2.89-.13,1.95,3.91-1.77,4.45-2,1.42-.61,2.45.24,3.79.09,1.56-.17,1-.53,2.26-1.2,2.2-1.15,4.88-1.9,6.86.21.61.65.75,1.58,1.4,2.47s1.88,1.92,1.32,3.3c-1.13-1.7-1.84-3-4.4-3.93-2-.73-2-.77-3.74,1-1.45,1.5-2.2,3.34-4,4.45-.62.38-4.16.86-4.22.95.37.49,6.71.82,4.7,1.89-2.26,1.21-4.6-2.6-6.37-1.68.27-1.36.45-2.84,1.63-3.72.76-.56,4.64-.46,3.52-1.68-1.72-1.88-4.92.23-5.38,2A27.19,27.19,0,0,1,119,14.7c1.93-.08,4,2.29,6.05,2.17.84,0,3.81-1.18,4.23-1.82-.35-.75-.94-.33-.68-1.62.32-1.52,2.32-3.58,3.48-4.42,1.83-1.33,5-1.62,5.75,1.19,0,0-1.46-1.22-1.42-.47,0,.59.55.55.88,1.09.79,1.31,1.9,2.31,2.57,3.95-.84.16-1.9,1.41-.86,1.12C138.36,18,139,19,136.45,19a14.79,14.79,0,0,1-4.09-.84,2.91,2.91,0,0,1,1.5-1.22c-.49-.76-1-1.56-1.62-.8-.65-1.46-.87-1.5-1.44-.27-.27-.2-.68-1-1.08-.92,1.51,6.4-8.85,2.74-11.68,2.19.78,1-.3.27-.84.56s.52,1.89-.94,1c-.66,1,4,0,4.89.06a16.16,16.16,0,0,1,5,.83c2.24.78,2.31.81,4.5-.28.24,2.71-3.72,2.73-5.44,2.55-3.74-.38-4.32-.7-5.13,2.88-.35,1.55-.3,1.86-1.3,3-.16.18-1.37.74-1.4.86-.52,2.11,3.42,2.14,2.89,3.93,1.54-1.68,2.67-3.71,4.45-5.2s3.18-.66,5.16-1.84c.61-.36,2.46-3,3-.93,0-.11-2.59,5.69-.8,5,.23-1.76,1.53-3.4,1.71-4.94.12-1-1.56-2.32.11-3.27,1.94-1.1,2.39,1.9,3.09,2,1.29.13.88-.81.56-1.72,1.87-.15,1.72,4.63,1.31,5.86a1.43,1.43,0,0,0-1-.74c.22.88,1.87,2.23,2.66,1.06-1.33-1-.06-3.22,1-3.74-2.83,0-.31-1.65,1.15-1.89a24.4,24.4,0,0,1,6.54-.42q-1.78,1.37.53,1.23a7.39,7.39,0,0,1,2.43.75c1.16-.23.2-1.05-.19-1.39a3.09,3.09,0,0,1,2.84.05.78.78,0,0,1,.86.1.86.86,0,0,0,.14,1.24,1.12,1.12,0,0,0,.79-.68c1.43,2.23-2.81,2.7-3.94,2.94l1,1.18c-1.23.85-2.61-1.57-3.81-1.59,1.07,1.15,1.32,2.7,2.3,3.9a9,9,0,0,1-.68-2.28c1.93,1.37,1.13.82,2.85.75.15,0,3.05-.74,3.29-.48,1.38,1.53-1.82,3.63-3.27,3.76-3,.28-4.53-2.63-6.89-3.65-1-.45-6.69-.94-6.66.23,4.45.61.64,3.68,4.57,4.62a2,2,0,0,1-.59-1.44c.31,0,1.7,1,2,1-1-.92-2.92-1.93-1.77-3,1.41-1.32,3.15.18,4,1,1.68,1.65,1.94,2.77,4.53,2.89,2,.09,3.41-.68,5.26-1.55-.62,2.15-2.62,2.82-4.62,3.2.49.45,1.25.2,1.83.12-2.7,3-7.2-2.8-7.7-2.15,1.48,1.38.36,2-1.06,3.12-.76.6-1.06,1.21-2.22,1.39s-1.42-.59-2.24-.44c.07-1.36,2.51.05,3.3-.79-1.35-.16-4.1.37-3.92-1.62a1.19,1.19,0,0,0,1.49.57c-1.76-1-2.47-3.15-4.25-4.16.37.88,1.54,2.12,1,3.18a4.92,4.92,0,0,0-4.25-1.09c-2.94.41-4.16.79-6.5-1.72a6.45,6.45,0,0,1-.74,2.05c-.9,1.17-1.57.3-2.61,1.15-1.89,1.53,1.81,1.74,2.41,2.76,1.74,3-4.09,7.76-.46,9.9q-.85.29-.32,1c-1.85.31-1.6-3.37-1.55-4.34-1.16,1.34.74,3.5-.06,4.33-1.37-.63-1.53-.26-2.11-1.62-1.23-2.87,2.2-3.58,2.62-5.74.15-.81-1-3.46-1.73-4.36-.28-.33-.85-1.19-1.26-1.34-.87-.33-.93,1.24-2.05.35,1-2,5-3.31,4.79-5.75-.53,1.07-1.34,1.36-2.12,2.1-.59.55-1.72,2.07-2.44,2.41s-1.62-.62-2.45.17-.14,2.19-.74,3.1c-.76,1.17-4.53,1.49-5.74,2a8.71,8.71,0,0,0-5.34,4.65c1.13-.24,1.54-1.42,2.31-2.11a8.51,8.51,0,0,1,3.63-1.82c1-.29,1.83-.35,2.78-.67,1.63-.54,2.5-2,3.55-.13.92-1.45-.31-1.92-.21-2.76.07-.54,1.69.37,1.92.46.46-2,1.46.43,1.39,1.32-.09,1.14-1.82,2.49-2.51,3.41-1.89,2.55-2.33,4.38-1,7,.68,1.37,2.56,2.73-.07,2.65.28,0,0-.66-.15-.77q-1,.86-1.54-.81l-1.89-2.23c-1.17,2.17-3.06,1.92-4.29,3.81-1.61,2.47-.11,4.46,2,5.89-1-1.43-3.65-4.65-.56-5.57a5.8,5.8,0,0,0,1.19,3.33c.49.56,3.05,1.86,2.7,2.77-1.07,2.71-6-1.07-6.81-1.52.15.65.56,1.43.26,1.74-1,1-2.42-.33-2.5-1.43a2.19,2.19,0,0,1-1.12.12c.65,1.94,7.06,5.84,2.94,7.52-.18-1.21.15-2.57-.78-3.58.29,5-4.21,1.71-6.32,2.84,1.79.79,3.94,1.8,5.9,1.66-1.75,2.3-4.19-.38-6.42.56-2.55,1.08-5,4.09-2.52,6.64,1.23-.38.91-2,.91-3,2,.55-.08,3.55-.95,4.64a8.54,8.54,0,0,1,2.07,2.85c.46-1.48,1.65.91,2.24,1.63.85,1,2.88,2.87,2.45,4.48-.57,2.14-5.05-2.23-6.47-2.89.69,1.58,1.52,1.75,2.86,2.67.54.37,3,1.65,3.17,2.12.36,1-1.54,2.25-2.62,2.23-2.47-.05-3.51-2.86-4.34-4.52-.65-1.31-1.57-2.3-2.29-3.52a20.1,20.1,0,0,0-1-2.11c-.36-.39-1.2-.49-1.26-1-.77.67.61,2.66.85,3.11s1.81,1.76,1.71,2.4c-.07.44-1.47.34-2,1.21-1.38-1.9-3.4-4.84-2.23-7.33.49-1.06,1.69-.78,2.2-1.62s-.26-3.22-.12-4.31c-.67.35-1.64,2.67-2.23,2.66-1.41,0,.66-5.05,1-5.59C93.9,65.24,92.66,67.84,93.58,66.27ZM125,16.49a1.22,1.22,0,0,1-1.72-.57c.53-.7,1.29.24,1.72.57C124.46,16.84,124.74,16.25,125,16.49Zm-5-1.84c-.21-.57.3-.68.52-.94A.73.73,0,0,1,120,14.65Zm2.81,7.57c-.21.29-2.81,3.5-2.41,3.57-.13-1.4.09-4.9,2.41-3.57C122.76,22.32,121.94,21.7,122.84,22.22ZM92.07,88.88c.59-.49,3.13-3.09,3.13-.58a8.1,8.1,0,0,1,1.32-1.08c1.08-.23.49-1.39,2.08-.12.5-1.31,1.46-2,1.83-.57a29.74,29.74,0,0,1-1.26,4.79c-.39,1-1.85,4.25-3.21,4.53a4.35,4.35,0,0,1,2.74,2.31c.2-.2.14-.44.13-.71,3.56-.22.63,8.11-.41,9.09l-.37-1.71c-1.37,1.79-4.41,4.47-6.16,1.36-1.33-2.36.81-5.67,3.26-5.4C93.95,98,92.79,99.09,92.79,96c-1,.2-3.53-2.65-2-3.71,2.42,1.45.84-1.1.54-1.84-.16-.4-.85-.94-.66-1.71.33-1.36.52-.13,1.37.17C92.61,88.44,91.52,88.68,92.07,88.88Z"/><path d="M171.52,157.34c2.17-.09,4.2-2.14,5.82-3.39,1.83-1.42,3.89-2.51,5.76-3.9a87.9,87.9,0,0,1,7.48-5.55,79.36,79.36,0,0,1,7.45-4.3,49.36,49.36,0,0,0,6.47-3c.54-.33,4-2.37,3.15-2.3,1.48-1.43,3-3.18,4.93-4a20.54,20.54,0,0,1,6.21-1c3.51-.13,8.56.64,11.16-2.41a134.11,134.11,0,0,1-13.87-.59,17.77,17.77,0,0,0-3.3-.3c-2.85.28-5.81,4-8.31,5.56-5.67,3.63-11.39,7.15-16.84,11.11-2.58,1.88-4.31,4.09-6.45,6.09a78.72,78.72,0,0,1-9,6.67,24.18,24.18,0,0,1,2-2.73c.26.21-7.41,6.64-8.57,7.46,2-.37,4.21-2.25,6-3.33C171.56,157.34,170.31,158.09,171.52,157.34Z"/><path d="M155.25,184c-5.95,2.55-11.47,4.65-15.94,9.42,1.53,1.67,15-6,17.22-7.14,2.93-1.48,14.57-6.07,12.87-10.8-1.73.75-3.23,2.22-4.76,3.31a50.55,50.55,0,0,1-9.39,5.22Z"/><path d="M165.34,160.86c.14,0,.41.31.23-.19a1.63,1.63,0,0,0,1-.41C165.51,160.19,165.52,160.52,165.34,160.86Z"/><path d="M96.76,64.4c1-.23,3-2,4.46-2.48s6.94.88,7.22.48a16.66,16.66,0,0,1-2.18-3.07c-.29-1.42.41-2.35-.84-3.75,0,.85-.64,1.15.12,1.74-.75-.11-1.94,1.41-2.73,1.57-1,.21-1.69-.25-2.66-.29-2.52-.1-1.31-.1-2.07,2.21C97.8,61.67,95.92,63.41,96.76,64.4Z"/><path d="M108.43,51.8c1.28-1,1.25-2.56,2.14-3.86,1.56-2.26,3-1.4,2.31-4.43C109.91,44.56,105.95,48.12,108.43,51.8Z"/><path d="M99.69,56.43c2.42,1.81,4.62-1.86,5.82-3.5l.07.7c.79-1.41,1-4.75-.89-3.22-.07.06-.43,1.06-.55,1.32-.67,1.39-1.44,2.77-3.05,3.16-.79.19-2-.68-2.63.14s.25,2.13,1.24,1.4C100,56.65,99.39,56.65,99.69,56.43Z"/><path d="M114,124.17a.63.63,0,0,0,.52-.15l-.48-.54C113.61,123.77,113.27,124.17,114,124.17Z"/><path d="M139.61,66.18c2.59-2,7.56-10.63,11.76-6.35a14.65,14.65,0,0,0-8,3.55c-1.31,1.07-5,4.21-1.6,2.91,2.27-.88,4.29-4.55,7.26-4.14s1.06,3.28-1,4c4.6,2.17,6.38-2.5,8.29-5.38.36-.54,2-1.68,2.15-2.18.53-1.77-2-2.38-3.47-2.65-1.63-.3-5-.71-6.56.25-.52.33-.3,1-.65,1.3a35.83,35.83,0,0,1-3.18,1.92c-3,1.92-5.51,4.79-8.19,7.1a3,3,0,0,0,3.18-.28Z"/><path d="M117.72,183.67c.06,0,1.91,2.9,2.1,3.11a14.17,14.17,0,0,0,4.27,3.32c2.78,1.4,9,4,11.63,1.47-2.18-.62-4.49-.72-6.7-1.25-1.19-.29-7.45-2.57-6.45-5,.33-.8,2.19-.1,3.1,0,2.19.32,4-.25,6.15-.71A50.38,50.38,0,0,0,141,182c5.19-2.38.59-3.16-2-2.84-4.29.53-8.46,1.71-12.8,2a10.79,10.79,0,0,1-6.09-1c-.56-.26-1.25-1.11-1.71-.92-1.19.49,0,1.71-.18,2.13S115.19,184,117.72,183.67Z"/><path d="M169.85,192.71a85.22,85.22,0,0,1,9.28-5.93c2.58-1.29,5.31-2.17,7.87-3.59,6.58-3.66,10.58-8.87,15.33-14.55s10.66-10.31,15.59-15.87c3.24-3.66,4.75-8.54,6.59-13-4.2,2.48-7.69,8-11,11.68-3.82,4.18-7.53,8.76-11.7,12.58-1.94,1.78-4.35,2.75-6.26,4.33-1.35,1.12-2.3,2.83-3.52,4.09a36.29,36.29,0,0,1-6,4.51c-1.8,1.23-4.24,5-6.62,5a65.83,65.83,0,0,1,7.17-9.65c1.22-1.41,4.35-3.86,4-6-5.44,3.75-9.91,8.57-14.35,13.32-6,6.45-13.54,10.85-21,15.53h.29c-2.77,1.72-7.25,5-10.47,5.16.14,0,11.08-7,11.09-7.54.06-2.31-14,3.48-15.45,3.79a26.28,26.28,0,0,1-5.87.54c-1.16,0-2.73-.51-3.76,0-2.26,1.13-.44,1.63,1.26,1.8,2.23.22,6.05-.86,8,.34-8.62,3.35-29.26,2.7-26.09-11.46-4.77,1,.12,9.71,2.1,11.4a46.72,46.72,0,0,0,8.31,5.78c3.24,1.66,6.58,1.26,10.09,1.35a64.71,64.71,0,0,0,8.7,0c3.53-.38,5.77-1.91,8.82-3.65C158.09,199.39,164.26,196.52,169.85,192.71Z"/><path d="M179.55,167.54c2.37,0,4.1-1.76,6.28-2.54a53.44,53.44,0,0,0,8.28-3.9c.77-.44,6.71-4.26,6-4.45-.38-.1-2.22,1-2.8,1.25-3.44,1.48-7,2.68-10.5,4.06-2.94,1.17-7.83,1.77-9,5.44A10.7,10.7,0,0,0,179.55,167.54Z"/><path d="M193.58,153.54c1.69,1.4,7.63-4.4,8.44-5.29,2.77-3.08,7.46-6.45,11.62-7,1.37-.19,3.48.39,4.51-1.07a16.48,16.48,0,0,1,.26-1.89,5.36,5.36,0,0,1,1.4-1.7c2.77-2.37,6.85-2.87,9.58-5.48-2.94.59-6.33.68-9.16,1.66-3.65,1.27-7.4,4.27-10.62,6.36a60.74,60.74,0,0,0-9.92,7.82,32.27,32.27,0,0,1-3.8,3.29c-.44.33-4.23,3-2.31,3.32C193.71,153.64,193.35,153.5,193.58,153.54Z"/><path d="M278.92,133.56c.25-.82,0-2.15-.54-2.47-.14-.08-.5-.2-.9.27a15.4,15.4,0,0,1-2.18,2c-.9.71-2,1.46-3.21,2.22s-2.38,1.53-3.74,2.35-2.62,1.58-3.92,2.42l-1.87,1.24c-.65.44-1.24.85-1.77,1.27s-1,.81-1.43,1.2a68.44,68.44,0,0,0,1.57-9.61,73.7,73.7,0,0,0-.19-14.74,89,89,0,0,0-1.45-8.79.73.73,0,0,0,.24-.12,29.05,29.05,0,0,0,5.89-6.12,26.21,26.21,0,0,0,3.88-8.56,15.49,15.49,0,0,0,.43-4.9,28,28,0,0,0-.74-4.88c-.28-1.23-.61-2.47-.93-3.68s-.63-2.37-.9-3.55l0-.17c0-.18,0-.36-.06-.54a1.66,1.66,0,0,0-.21-.63c-.08-.4-.15-.8-.21-1.2a1.34,1.34,0,0,0-1.15-1.26,1,1,0,0,0-1,.71,33.57,33.57,0,0,1-3,6.27,26,26,0,0,0-3.73,9.12c-.18,1.12-.32,2.46-.42,4.1,0,.7-.06,1.45-.07,2.24v.5c0,.6,0,1.21,0,1.81,0,.83.05,1.63.09,2.31q0,.43,0,.86c-1.12-3.83-2.5-7.79-4.1-11.82-1.81-4.52-4-9.36-6.56-14.78a25.37,25.37,0,0,0,5.8-13c.43-3.43-.64-6.5-1.78-9.74-.39-1.1-.79-2.25-1.12-3.37l0-.19c0-.09,0-.17,0-.26a1.54,1.54,0,0,0-.21-.55c-.07-.28-.14-.56-.2-.85A1.26,1.26,0,0,0,248,47.56a1,1,0,0,0-1,.75A26.61,26.61,0,0,1,244.86,53c-1.25,2.37-2.53,4.83-2.66,8a37.11,37.11,0,0,0,.6,7.84L241.42,66c-1.09-2.13-2.2-4.27-3.29-6.37a1.45,1.45,0,0,0-.09-.17l-.28-.54a7.62,7.62,0,0,0-1.81-3.49c-2.35-4.53-4.85-9.37-7.27-14.29a1.3,1.3,0,0,0-1-.8,1,1,0,0,0-.87.43,1.3,1.3,0,0,0,0,1.32c1.85,3.77,3.78,7.52,5.45,10.76a23.64,23.64,0,0,0-4.63-1.48,75.24,75.24,0,0,0-8-1.18,34,34,0,0,1-5.85-.93.76.76,0,0,0-1,.29,1.82,1.82,0,0,0,.34,2,1.41,1.41,0,0,0,.62,1c.29.2.57.37.86.55l.1.06c3.5,3.53,7,6.84,10.73,8.46a14,14,0,0,0,11.28,0l0,0q1.39,2.67,2.76,5.35c2.4,4.68,4.36,8.62,6.09,12.28a15.42,15.42,0,0,0-4.79-2.61,38.54,38.54,0,0,0-8.54-1.54c-1.12-.12-2.27-.24-3.41-.39a1,1,0,0,0-1,.55,1.29,1.29,0,0,0,.23,1.47c.94,1,1.89,2.21,2.8,3.35,2.52,3.13,5.12,6.36,8.41,7.84,3.13,1.43,6.18,1.35,9.12,1.27l1.62,0q.62,1.47,1.21,3a107.56,107.56,0,0,1,7.3,27.3,20.73,20.73,0,0,0-1.46-2.77,19.06,19.06,0,0,0-2.25-3,13.78,13.78,0,0,0-3.12-2.51,22.45,22.45,0,0,0-3.39-1.56c-.57-.21-1.14-.41-1.71-.61l-1.74-.59a28.41,28.41,0,0,1-3.37-1.39,1.14,1.14,0,0,0-1.34.28,1.07,1.07,0,0,0-.06,1.34c.16.24.31.49.45.74a1.19,1.19,0,0,0,.21.53l.22.3.13.17.21-.1h0l-.19.15c.28.55.52,1.11.76,1.65l.07.16c.33.73.6,1.46.87,2.16.18.47.36.94.55,1.41l.74,1.72a16.1,16.1,0,0,0,.88,1.67,14.12,14.12,0,0,0,2.49,3.16,36.37,36.37,0,0,0,2.82,2.49c1.16.91,2.08,1.59,3,2.2s2,1.32,3.14,2c.74.44,1.53.9,2.55,1.46,0,1.29-.12,2.56-.23,3.75a66.59,66.59,0,0,1-2.81,14,69.64,69.64,0,0,1-5.88,13.44,25.21,25.21,0,0,0,.37-4.16,27.68,27.68,0,0,0-.37-4.17,16.84,16.84,0,0,0-3-6.95,11.28,11.28,0,0,0-5.15-3.93,1.07,1.07,0,0,0-1.25.47,1,1,0,0,0,.08,1.25,4.13,4.13,0,0,1,.5.67,1,1,0,0,0,.29.55h0a4.6,4.6,0,0,1,.34,1.17,12.63,12.63,0,0,1-.08,2.94c-.08.49-.18,1-.28,1.49s-.23,1.1-.31,1.66c0,.23-.06.46-.1.68s-.09.59-.12.88a8.1,8.1,0,0,0,0,1.55,19,19,0,0,0,.27,2c.1.73.22,1.37.35,2a37,37,0,0,0,1.1,3.83c.22.68.45,1.36.68,2,.5,1.47,1,3,1.41,4.52-1.21,1.75-2.52,3.57-3.9,5.41a115.94,115.94,0,0,1-12.18,13.55c.09-.32.16-.64.22-1a25.78,25.78,0,0,0,.43-4.34,48.42,48.42,0,0,0-.82-8.61l-.62-3.56a20.18,20.18,0,0,1-.35-2.65,1,1,0,0,0-.82-1,1.18,1.18,0,0,0-1.31.7l-.08.16a1.27,1.27,0,0,0-.66.84c-.08.27-.14.54-.2.81l0,.18-.9,1.74a48.79,48.79,0,0,0-4.4,10.33,19.51,19.51,0,0,0-.53,3.62,17.61,17.61,0,0,0,.19,3.42,19.5,19.5,0,0,0,1.66,5.33,1,1,0,0,0,.08,1c-.64.51-1.31,1-2,1.52a104.83,104.83,0,0,1-23.34,13.11,26.73,26.73,0,0,0,3-3.44,28.78,28.78,0,0,0,2.24-3.61,25.72,25.72,0,0,0,1.61-3.83,23.17,23.17,0,0,0,.89-3.85,17.79,17.79,0,0,0,.1-3.69,11.46,11.46,0,0,0-2.24-6.16,1.09,1.09,0,0,0-1.32-.32,1.26,1.26,0,0,0-.76,1.34,3.88,3.88,0,0,1,0,.91,1.05,1.05,0,0,0-.08.62,10.15,10.15,0,0,1-2.41,4.05l-.88,1a14.43,14.43,0,0,0-3.18,4.6,44.85,44.85,0,0,0-1.71,8.91c-.22,1.8-.45,3.66-.82,5.52-3.7,1.29-7.6,2.5-11.59,3.61-4.76,1.33-9.17,2.43-13.48,3.36a1.22,1.22,0,0,0-1.08,1.38,1.08,1.08,0,0,0,1.41.73l.36-.08c.26.47.53.95.79,1.43a39.22,39.22,0,0,0,3.11,5.06,15,15,0,0,0,3.12,3.09,12.92,12.92,0,0,0,4.47,2,28.94,28.94,0,0,0,7,.79q1.91,0,4-.19c3.12-.28,6.35-.83,9.47-1.37l2-.34a1.55,1.55,0,0,0,1.34-1.2.88.88,0,0,0-.45-.94,69.82,69.82,0,0,1-6.3-3.93,53.37,53.37,0,0,0-8.83-5.16,23.46,23.46,0,0,0-9.28-1.81l3.58-1c4.91-1.38,9.68-2.93,14.18-4.59a105.26,105.26,0,0,0,11.25-5c1,.52,2,1.1,3,1.71,1.19.71,2.42,1.45,3.71,2.1a19.09,19.09,0,0,0,3.89,1.52,14.11,14.11,0,0,0,4.46.47,17.36,17.36,0,0,0,3.64-.72c.68-.21,1.37-.44,2.08-.67l1.87-.6a15.83,15.83,0,0,1,5.11-1.05,1.1,1.1,0,0,0,.76.08,3.6,3.6,0,0,1,.86.24,1.9,1.9,0,0,0,1.88-.63,1.11,1.11,0,0,0,.34-1.27c-.93-1.87-2.67-3.2-5.32-4.06a20.77,20.77,0,0,0-3.64-.79,37.91,37.91,0,0,0-3.82-.33,55.74,55.74,0,0,0-13,.79,106.07,106.07,0,0,0,9.27-6.18,114.6,114.6,0,0,0,12.55-10.92l1.64.74a36,36,0,0,0,4.31,1.75,11.6,11.6,0,0,0,7.65,0c5.29-1.84,9.65-5.72,14.28-9.82l1.31-1.16a1.54,1.54,0,0,0,.51-1.71.87.87,0,0,0-.88-.57c-2,.13-4,.11-5.9.1a51.56,51.56,0,0,0-8,.33,21.77,21.77,0,0,0-6.8,2.07c-.38.19-.75.4-1.14.63,1.16-1.38,2.2-2.68,3.16-3.93,1.2-1.56,2.43-3,3.76-4.93.48-.24,1-1.2,1-1.2h0c1.44-2,2.82-4.64,4.12-6.86a75.12,75.12,0,0,0,4.84-10.08,1.28,1.28,0,0,0,.46-.17,14.86,14.86,0,0,0,5.5.52,11.81,11.81,0,0,0,3.49-1,12.12,12.12,0,0,0,3.49-2.31,26.1,26.1,0,0,0,3.09-3.46A42.63,42.63,0,0,0,275,143.2c.93-1.85,1.6-3.29,2.17-4.69l.09-.23c.24-.64.48-1.28.7-1.89s.57-1,.79-1.38a1.93,1.93,0,0,0,.19-1.44Zm-19.53,17.53c.66-.43,1.35-.84,2-1.23l.9-.53c.87-.52,1.75-1,2.65-1.55l.4-.23c.95-.54,1.92-1.1,2.83-1.71a39.71,39.71,0,0,0,4.75-3.5l-.24.45c-.41.71-.86,1.38-1.19,1.88a18.26,18.26,0,0,1-2.63,3.19,14.3,14.3,0,0,1-3.1,2.28,10.53,10.53,0,0,1-3.11,1,11.62,11.62,0,0,1-3.48,0Zm13.06-11.68a33.36,33.36,0,0,1-2.64,2.28c-.78.62-1.65,1.19-2.49,1.73l-.3.19c-.95.61-1.9,1.19-2.81,1.75l-.85.49c-.68.39-1.36.79-2,1.19l-1.41.87-1.4.9-.35.23a9.43,9.43,0,0,1,1.76-2.35,34.67,34.67,0,0,1,6.36-4.5l4.57-2.7c1-.56,1.86-1.09,2.68-1.62l.76-.49-.6.73C273.32,138.56,272.87,139,272.45,139.41Zm-11.34-33.58c.69-2.25,1.49-4.45,2.27-6.59.51-1.4,1-2.85,1.53-4.3a46.65,46.65,0,0,0,2-7.93,18.12,18.12,0,0,1,0,8.71,25.27,25.27,0,0,1-1.49,3.93,24.69,24.69,0,0,1-2,3.39A23.58,23.58,0,0,1,261.12,105.83Zm-1.77-7.37a42.21,42.21,0,0,1,.33-5.05,18.47,18.47,0,0,1,1-4.2,35.37,35.37,0,0,1,2.86-5.59c.53-.9,1.08-1.82,1.58-2.78a36.65,36.65,0,0,1-2.37,13.52c-.48,1.4-1,2.8-1.49,4.15-.58,1.59-1.18,3.23-1.73,4.88C259.4,101.81,259.32,100.12,259.35,98.46Zm-7.83,19.16c-.69-.58-1.37-1.15-2-1.72l-.62-.53c-.63-.54-1.28-1.1-1.87-1.66-.39-.37-.76-.74-1.17-1.15s-.78-.79-1.15-1.21-.54-.63-.84-1l1.29.42,1.21.4a27.2,27.2,0,0,1,2.89,1.12,12.6,12.6,0,0,1,2.61,1.65,14.77,14.77,0,0,1,1.31,1.24c.42.47.84,1,1.24,1.52s.85,1.2,1.18,1.74.69,1.25,1,1.93a21,21,0,0,1,1.35,3.57,44.7,44.7,0,0,0-5.89-5.86Zm-2.25.88,1.07.91c.75.66,1.64,1.45,2.52,2.27s1.69,1.71,2.37,2.47c.41.47.78.91,1.12,1.35s.47.65.69,1a42.23,42.23,0,0,1-8.77-6.59,12,12,0,0,1-2-2.73c-.38-.75-.72-1.49-1-2.2C246.52,116.18,247.86,117.31,249.26,118.5Zm-4.42-59.35A28.67,28.67,0,0,1,247,54.29c.23-.44.46-.9.69-1.35.25,4.2-.64,8.11-1.5,11.91-.36,1.59-.73,3.21-1,4.86C244.23,65.59,244.11,61.63,244.85,59.15Zm5.29,4.47a22.18,22.18,0,0,1-2,6.07c-.3.6-.62,1.18-1,1.77.3-2.14.76-4.24,1.2-6.28a68.35,68.35,0,0,0,1.35-7.46A13.48,13.48,0,0,1,250.14,63.62Zm-3.43,23.12c-.63,0-1.28.06-1.93,0a10,10,0,0,1-5.58-1.55A27.36,27.36,0,0,1,233.71,80c1.76.94,3.55,1.82,5.29,2.68C241.55,84,244.17,85.26,246.71,86.75Zm-6.91-8a13,13,0,0,1,7.44,5.55c-2.48-1.42-5-2.67-7.49-3.88-1.73-.85-3.51-1.72-5.26-2.65A28.3,28.3,0,0,1,239.81,78.8Zm-5.25-21.38a50.15,50.15,0,0,0-7.8-2.33,48.1,48.1,0,0,1-8-2.42l.35,0c2.23.24,4.76.51,7.19,1,4,.77,6.68,1.91,8.13,3.48Zm-.6,2.33a11.31,11.31,0,0,1-9.19-1.1A28.83,28.83,0,0,1,221,56c1.7.54,3.42,1,5.09,1.38A51.91,51.91,0,0,1,234,59.74Zm14.29,98.2a29.73,29.73,0,0,1-.34,3.79c-.12.61-.27,1.24-.44,1.89,0-.72-.06-1.47-.09-2.26s-.15-1.77-.24-2.64c-.05-.53-.1-1.05-.15-1.57l-.1-1-.13-1c-.08-.69-.16-1.37-.23-2l-.13-1.27c-.06-.42-.14-.85-.21-1.26-.15-.84-.32-1.56-.51-2.21a15,15,0,0,1,1.33,2.61c.21.52.4,1.07.57,1.63s.26,1.09.36,1.73.18,1.19.24,1.82A14,14,0,0,1,248.24,157.94ZM243.87,159a18.91,18.91,0,0,1-.44-2.18,13,13,0,0,1-.13-2.18,14.44,14.44,0,0,1,.17-2.25l.23-1.24,0-.25c0-.13,0-.25.07-.39l.05-.45.1.43a21.71,21.71,0,0,1,.34,2.32c0,.23.05.47.08.7l.68,6.51c.07,1.15.11,2.34.15,3.46-.27-.75-.53-1.51-.77-2.26h0C244.23,160.47,244,159.73,243.87,159Zm-2.55,27.51c1.39-.27,2.83-.56,4.22-.89,1.2-.28,2.26-.53,3.25-.78s2.05-.57,3.25-.94,2.1-.68,3.19-1.1L255,183c-.59.5-1.22,1-1.91,1.56s-1.33,1-1.93,1.42-1.33.83-2,1.18a13.08,13.08,0,0,1-4,1.47,14.11,14.11,0,0,1-8.28-1.27l2.16-.42ZM252,181.37c-1,.32-2.07.63-3.22.94l-1.59.43-1.61.38c-2.22.51-4.31,1-6.4,1.37l-1.93.4c.37-.31.75-.61,1.13-.89a18.42,18.42,0,0,1,1.59-1c.49-.29,1-.58,1.56-.84a17.09,17.09,0,0,1,3.14-1.13,19.87,19.87,0,0,1,3.14-.58,31.69,31.69,0,0,1,3.2-.16c1.12,0,2.25,0,3.21,0l.68,0C254,180.71,253,181.05,252,181.37Zm-25,1.35a29.68,29.68,0,0,1-.2,4,15.5,15.5,0,0,1-.87,3.51,6.92,6.92,0,0,1-1.64,2.55l0,0a39.66,39.66,0,0,0,1.35-10.18q0-.85.06-1.69c.07-2.18.14-4.43.41-6.65l.08.47c.21,1.16.39,2.45.55,3.83A40.78,40.78,0,0,1,227,182.72Zm-6,2.61a14,14,0,0,1,.76-3.57,43.09,43.09,0,0,1,1.79-4.41c-.09,1.7-.14,3.38-.19,5a55.3,55.3,0,0,1-.52,6.38,29.63,29.63,0,0,1-.78,3.44,16.73,16.73,0,0,1-.95-3.49A14.23,14.23,0,0,1,221.07,185.32Zm2.4,25.15c.83,0,1.69,0,2.54-.05h1.06l-.44.14-.53.17c-1.13.35-2.3.71-3.4,1a13.07,13.07,0,0,1-4.85.18,16.51,16.51,0,0,1-4.22-1.31c-.65-.29-1.28-.61-1.85-.92,2.09.29,4.41.6,6.77.79A42.77,42.77,0,0,0,223.47,210.47Zm-1.95-2.3c-2.89-.15-5.75-.46-8.46-.81a51.58,51.58,0,0,1,9.1-.29,34.46,34.46,0,0,1,6.91.92l.32.09c-1.17,0-2.37,0-3.55.06C224.41,208.19,222.94,208.25,221.52,208.17ZM198,194.79c-.36,1-.79,2-1.2,2.92l-.23.53c-.41.91-.83,1.85-1.17,2.76-.63,1.64-1.44,3.71-2.41,5.86.06-.77.13-1.55.23-2.32a21.3,21.3,0,0,1,.91-4.33,12.21,12.21,0,0,1,2.08-3.89l.78-.95c.46-.55.93-1.11,1.38-1.69C198.24,194,198.12,194.41,198,194.79Zm-3,13c.7-1.61,1.33-3.24,2-4.82s1.16-3,1.78-4.41a37,37,0,0,0,2.09-5.64,15.58,15.58,0,0,1-.18,3.26,19,19,0,0,1-.87,3.46A24.7,24.7,0,0,1,195,207.83Zm-2.79,23.53c-1.3.22-2.79.44-4.27.59-4.38.44-7.82.13-10.5-.92a13.69,13.69,0,0,1-6.06-4.71,33,33,0,0,1-1.92-2.89c3,1.37,6.56,2.93,10.3,4.35A71.16,71.16,0,0,0,192.22,231.36Zm-14.17-9.66c2.44,0,4.84,1.15,7.32,2.39a62.85,62.85,0,0,1,7,4.32l1.06.72a70.89,70.89,0,0,1-12.23-3.41c-3.69-1.36-7.18-2.87-9.94-4.08a57.37,57.37,0,0,1,6.78.06Zm63.65-76.34-.08,0,.14-.13Zm5.42,24.78h0l.09,0,0,0Z"/><path d="M134.61,220c-4.32-.93-8.73-2-13.48-3.36-4-1.11-7.89-2.33-11.59-3.61-.37-1.86-.6-3.72-.82-5.52a44.82,44.82,0,0,0-1.71-8.91,14.43,14.43,0,0,0-3.18-4.6l-.88-1a10.08,10.08,0,0,1-2.41-4.05,1.05,1.05,0,0,0-.08-.62,3.87,3.87,0,0,1,0-.91,1.26,1.26,0,0,0-.76-1.34,1.09,1.09,0,0,0-1.32.32,11.46,11.46,0,0,0-2.24,6.15,17.8,17.8,0,0,0,.1,3.69,23.17,23.17,0,0,0,.89,3.85A25.67,25.67,0,0,0,98.78,204a28.71,28.71,0,0,0,2.24,3.61,26.67,26.67,0,0,0,3,3.44,104.79,104.79,0,0,1-23.34-13.11c-.66-.49-1.33-1-2-1.52a1,1,0,0,0,.08-1,19.49,19.49,0,0,0,1.66-5.33,17.54,17.54,0,0,0,.19-3.42,19.59,19.59,0,0,0-.54-3.63,48.76,48.76,0,0,0-4.39-10.32l-.9-1.75,0-.17c-.06-.27-.13-.55-.2-.82a1.27,1.27,0,0,0-.66-.84l-.08-.16a1.18,1.18,0,0,0-1.31-.7,1,1,0,0,0-.82,1,20,20,0,0,1-.35,2.65l-.62,3.56a47.67,47.67,0,0,0-.82,8.62,25.75,25.75,0,0,0,.43,4.34c.06.32.14.63.22,1A116,116,0,0,1,58.44,175.8c-1.38-1.83-2.69-3.65-3.9-5.41.4-1.53.91-3,1.41-4.52.23-.68.46-1.35.68-2a36.9,36.9,0,0,0,1.1-3.83c.13-.59.25-1.23.35-2a18.9,18.9,0,0,0,.27-2,8.07,8.07,0,0,0,0-1.56c0-.29-.08-.58-.12-.88s-.07-.45-.1-.68c-.08-.56-.2-1.12-.31-1.66s-.2-1-.28-1.48a12.68,12.68,0,0,1-.08-2.94,4.25,4.25,0,0,1,.34-1.17,1,1,0,0,0,.29-.55,4.18,4.18,0,0,1,.5-.67,1,1,0,0,0,.08-1.25,1.08,1.08,0,0,0-1.26-.47,11.29,11.29,0,0,0-5.15,3.93,16.85,16.85,0,0,0-3,7,27.58,27.58,0,0,0-.37,4.16,25.3,25.3,0,0,0,.37,4.16,69.66,69.66,0,0,1-5.88-13.44,66.56,66.56,0,0,1-2.81-14c-.11-1.2-.19-2.46-.23-3.75.72-.4,1.64-.92,2.55-1.46C44,128.61,45,128,46,127.3s1.82-1.29,3-2.2a36.46,36.46,0,0,0,2.82-2.49,14.13,14.13,0,0,0,2.49-3.16,16.33,16.33,0,0,0,.89-1.68l.74-1.71c.19-.47.37-.94.55-1.41.27-.7.55-1.43.87-2.16l.07-.16c.23-.54.48-1.1.77-1.67l.15-.2.22-.3a1.19,1.19,0,0,0,.21-.53c.15-.25.29-.49.45-.74a1.07,1.07,0,0,0-.06-1.34,1.14,1.14,0,0,0-1.34-.27,28.07,28.07,0,0,1-3.37,1.39l-1.74.59c-.57.2-1.14.4-1.71.61a22.49,22.49,0,0,0-3.39,1.56,13.75,13.75,0,0,0-3.12,2.5,19,19,0,0,0-2.25,3,20.7,20.7,0,0,0-1.46,2.77,107.6,107.6,0,0,1,7.3-27.3q.59-1.49,1.21-3l1.62,0c2.95.08,6,.16,9.12-1.27,3.28-1.48,5.89-4.72,8.41-7.84.91-1.13,1.86-2.31,2.8-3.35a1.29,1.29,0,0,0,.23-1.47,1,1,0,0,0-1-.55c-1.13.16-2.29.28-3.41.39a38.52,38.52,0,0,0-8.54,1.54,15.43,15.43,0,0,0-4.79,2.61c1.73-3.66,3.68-7.59,6.09-12.28q1.37-2.68,2.76-5.35l0,0a14,14,0,0,0,11.28,0c3.78-1.62,7.23-4.93,10.73-8.46l.12-.07c.28-.17.56-.35.84-.54a1.41,1.41,0,0,0,.62-1,1.82,1.82,0,0,0,.34-2,.76.76,0,0,0-1-.29,33.91,33.91,0,0,1-5.85.93,75.26,75.26,0,0,0-8,1.18,23.62,23.62,0,0,0-4.63,1.48c1.66-3.22,3.58-7,5.45-10.76a1.3,1.3,0,0,0,0-1.32,1,1,0,0,0-.87-.43,1.31,1.31,0,0,0-1,.8c-2.41,4.91-4.92,9.75-7.27,14.29a7.62,7.62,0,0,0-1.81,3.49l-.29.57-.06.12q-1.66,3.19-3.3,6.39L56.56,69a37.1,37.1,0,0,0,.6-7.84c-.12-3.15-1.41-5.6-2.66-8a26.54,26.54,0,0,1-2.07-4.65,1,1,0,0,0-1-.75,1.26,1.26,0,0,0-1.14,1.11c-.06.28-.13.57-.2.85a1.54,1.54,0,0,0-.21.55c0,.09,0,.17,0,.26l0,.16c-.33,1.15-.74,2.3-1.12,3.4-1.14,3.24-2.22,6.31-1.78,9.74a25.36,25.36,0,0,0,5.8,13c-2.61,5.42-4.75,10.25-6.56,14.78-1.61,4-3,8-4.1,11.82,0-.28,0-.57,0-.85.05-.93.08-1.64.09-2.31s0-1.22,0-1.82V98c0-.78,0-1.53-.07-2.24-.1-1.63-.24-3-.42-4.1a26,26,0,0,0-3.73-9.12,33.56,33.56,0,0,1-3-6.27,1,1,0,0,0-1-.71,1.34,1.34,0,0,0-1.15,1.26q-.09.6-.21,1.2a1.67,1.67,0,0,0-.21.63c0,.18,0,.36-.06.54v.14c-.27,1.2-.6,2.41-.91,3.58s-.65,2.45-.93,3.67a28,28,0,0,0-.74,4.88,15.47,15.47,0,0,0,.43,4.9,26.23,26.23,0,0,0,3.88,8.56,29,29,0,0,0,5.89,6.12.73.73,0,0,0,.24.12c-.66,3.1-1.14,6-1.45,8.79a73.7,73.7,0,0,0-.19,14.74A68.48,68.48,0,0,0,40,144.32c-.43-.4-.9-.79-1.43-1.2s-1.12-.83-1.78-1.27l-1.87-1.24c-1.29-.84-2.64-1.66-3.92-2.42s-2.59-1.61-3.74-2.35-2.3-1.52-3.21-2.22a15.37,15.37,0,0,1-2.18-2c-.4-.47-.76-.34-.9-.27-.59.32-.79,1.65-.54,2.47v0a1.92,1.92,0,0,0,.19,1.44c.22.42.47.86.77,1.34l.75,2,.06.16c.57,1.39,1.23,2.83,2.17,4.69A42.78,42.78,0,0,0,27,147.66a26.15,26.15,0,0,0,3.09,3.45,12.12,12.12,0,0,0,3.5,2.31,11.78,11.78,0,0,0,3.49.93,14.91,14.91,0,0,0,5.5-.56,1.13,1.13,0,0,0,.46.11,73.45,73.45,0,0,0,4.84,9.95c1.3,2.22,2.68,4.44,4.12,6.59h0a1.86,1.86,0,0,0,1,1.47c1.33,1.93,2.56,3.63,3.76,5.2,1,1.26,2,2.55,3.16,3.93-.39-.23-.77-.44-1.15-.63A21.76,21.76,0,0,0,52,178.34a51.71,51.71,0,0,0-8-.33c-1.93,0-3.92,0-5.9-.09a.88.88,0,0,0-.88.57,1.54,1.54,0,0,0,.51,1.71L39,181.35c4.62,4.11,9,8,14.27,9.82a11.6,11.6,0,0,0,7.66,0,36.08,36.08,0,0,0,4.31-1.76l1.63-.73a114.56,114.56,0,0,0,12.55,10.92,106.07,106.07,0,0,0,9.27,6.18,55.68,55.68,0,0,0-13-.79,38.26,38.26,0,0,0-3.82.33,20.9,20.9,0,0,0-3.64.79c-2.65.86-4.39,2.18-5.32,4.06a1.11,1.11,0,0,0,.34,1.27,1.9,1.9,0,0,0,1.88.63,3.69,3.69,0,0,1,.86-.24,1.11,1.11,0,0,0,.76-.08,16.41,16.41,0,0,1,5.11,1.05l1.86.6c.7.23,1.4.46,2.08.67a17.26,17.26,0,0,0,3.64.72,14.08,14.08,0,0,0,4.46-.47,19.07,19.07,0,0,0,3.89-1.52c1.29-.65,2.52-1.39,3.71-2.1,1-.61,2-1.19,3-1.71a105.2,105.2,0,0,0,11.25,5c4.49,1.66,9.26,3.21,14.18,4.59l3.58,1a23.48,23.48,0,0,0-9.28,1.81,53.39,53.39,0,0,0-8.83,5.16,69.74,69.74,0,0,1-6.3,3.93.88.88,0,0,0-.45.95,1.55,1.55,0,0,0,1.34,1.2l2,.34c3.11.53,6.34,1.08,9.45,1.36,1.4.13,2.74.19,4,.19a28.94,28.94,0,0,0,7-.79,12.93,12.93,0,0,0,4.47-2,15,15,0,0,0,3.11-3.09,39.08,39.08,0,0,0,3.11-5.06c.26-.48.53-1,.79-1.43l.36.08a1.08,1.08,0,0,0,1.41-.73A1.22,1.22,0,0,0,134.61,220Zm-9.78,1.73a30.84,30.84,0,0,1,3.26.18c-2.76,1.21-6.26,2.7-9.94,4.06a71,71,0,0,1-12.23,3.41l1.07-.72a62.71,62.71,0,0,1,7-4.31h0a23.22,23.22,0,0,1,10.84-2.63Zm5.06,2a33.15,33.15,0,0,1-1.92,2.89h0a13.7,13.7,0,0,1-6.06,4.71c-2.68,1.05-6.12,1.35-10.5.92-1.48-.15-3-.37-4.27-.59a71.14,71.14,0,0,0,12.45-3.58C123.33,226.65,126.87,225.09,129.89,223.72Zm-25.7-15.61a25.77,25.77,0,0,1-4.94-8.17h0a25.4,25.4,0,0,0-.7-3.45,15.27,15.27,0,0,1-.1-3.26,37.27,37.27,0,0,0,2.13,5.64c.62,1.46,1.15,3,1.72,4.41S103.49,206.5,104.19,208.11ZM101,194c.45.57.91,1.13,1.37,1.68l.79,1a12.2,12.2,0,0,1,2.08,3.89,21.23,21.23,0,0,1,.91,4.33c.1.76.17,1.54.23,2.32-1-2.14-1.78-4.22-2.41-5.86-.34-.91-.76-1.85-1.16-2.75l-.23-.53c-.42-1-.85-2-1.21-2.93C101.25,194.69,101.13,194.32,101,194Zm-27.5,14.44c-.9,0-1.82-.07-2.72-.07H70l.32-.09a34.42,34.42,0,0,1,6.91-.92,51.92,51.92,0,0,1,9.09.29c-3,.38-5.67.67-8.46.81C76.43,208.53,75,208.47,73.52,208.42Zm-.17,2.28c.84,0,1.7,0,2.53.05a42.86,42.86,0,0,0,4.92,0c2.21-.18,4.35-.45,6.77-.79-.57.31-1.2.63-1.85.92h0a16.47,16.47,0,0,1-4.21,1.31,13.08,13.08,0,0,1-4.85-.17c-1.12-.26-2.33-.64-3.4-1l-.41-.13-.56-.18ZM78.18,189a16.77,16.77,0,0,1-.95,3.49,29.58,29.58,0,0,1-.78-3.44,55.11,55.11,0,0,1-.52-6.38c0-1.64-.1-3.32-.19-5A43.28,43.28,0,0,1,77.54,182a14.07,14.07,0,0,1,.76,3.57A14.27,14.27,0,0,1,78.18,189Zm-3.13,4.14,0,0a6.91,6.91,0,0,1-1.64-2.56,15.49,15.49,0,0,1-.87-3.5,29.66,29.66,0,0,1-.2-4,41.06,41.06,0,0,1,.29-4.12c.16-1.38.34-2.67.55-3.83l.08-.47c.27,2.22.34,4.47.41,6.65,0,.57,0,1.13.06,1.7A39.69,39.69,0,0,0,75.05,193.1ZM51.52,180.71a19.78,19.78,0,0,1,3.14.58,17,17,0,0,1,3.14,1.13c.54.26,1.07.56,1.56.84a18.38,18.38,0,0,1,1.59,1c.38.28.76.57,1.13.89l-1.93-.4c-2.1-.41-4.19-.86-6.39-1.37L52.14,183l-1.6-.43c-1.15-.32-2.2-.62-3.22-.94s-1.93-.79-2.9-1.17c.23,0,.45-.16.68-.16h0c1,0,2.09.07,3.21.09A28.43,28.43,0,0,1,51.52,180.71Zm2.3,5.19c1.39.33,2.83.61,4.21.89l2.24.45,2.16.31c-2.54,1-5.13,2.16-8.28,1.16h0a8.89,8.89,0,0,1-3.95-1.35c-.65-.35-1.32-.69-2-1.13s-1.23-.85-1.93-1.4-1.33-1-1.91-1.54l-.25-.21c1.09.42,2.14.78,3.19,1.1,1.2.37,2.22.68,3.25.94S52.62,185.62,53.82,185.9Zm.46-25.61.68-6.52c0-.24.05-.47.08-.7a21.68,21.68,0,0,1,.34-2.31l.1-.43.06.46c0,.12,0,.25.07.37l0,.26.23,1.24a14.57,14.57,0,0,1,.17,2.26,13.12,13.12,0,0,1-.13,2.18,19,19,0,0,1-.45,2.19c-.16.71-.35,1.45-.58,2.19s-.5,1.51-.77,2.26C54.18,162.63,54.22,161.44,54.29,160.29Zm-.59-11.73c-.19.65-.35,1.37-.51,2.21-.08.41-.15.84-.21,1.26l-.13,1.27c-.07.68-.15,1.36-.23,2l-.13,1-.1,1c0,.51-.1,1-.14,1.54-.08.88-.17,1.77-.24,2.68s-.07,1.53-.09,2.25c-.17-.64-.32-1.27-.44-1.88a29.61,29.61,0,0,1-.34-3.8,13.64,13.64,0,0,1,.07-1.86c.06-.64.14-1.25.24-1.82s.23-1.2.36-1.72.36-1.11.57-1.64A15,15,0,0,1,53.69,148.56ZM38.33,106.11a12.84,12.84,0,0,1-2.25-2.79h0A15,15,0,0,1,34,99.93,25.41,25.41,0,0,1,32.44,96a18.13,18.13,0,0,1,0-8.71,46.61,46.61,0,0,0,2,7.93c.49,1.45,1.05,2.89,1.56,4.29C36.8,101.65,37.64,103.86,38.33,106.11Zm1.55-2.42c-.55-1.66-1.15-3.29-1.74-4.89-.5-1.35-1-2.75-1.49-4.15a36.64,36.64,0,0,1-2.37-13.52c.51,1,1.05,1.88,1.58,2.78a35.35,35.35,0,0,1,2.86,5.59,18.5,18.5,0,0,1,1,4.2,42.13,42.13,0,0,1,.33,5C40,100.4,40,102.09,39.87,103.69ZM43,125.78c.35-.44.72-.88,1.13-1.35.84-.95,1.57-1.73,2.37-2.47s1.77-1.61,2.52-2.26l1.07-.91c1.4-1.19,2.74-2.33,4-3.56-.29.71-.63,1.44-1,2.2a12,12,0,0,1-2,2.73,42.25,42.25,0,0,1-8.77,6.59C42.55,126.42,42.78,126.1,43,125.78Zm10.5-12.93c-.38.38-.75.76-1.15,1.13-.59.56-1.24,1.12-1.87,1.66l-.62.53c-.67.58-1.36,1.16-2.05,1.74l-.5.42a43.71,43.71,0,0,0-5.65,5.86,7.93,7.93,0,0,1,1.58-3.57h0a4.18,4.18,0,0,1,.78-1.93A20.19,20.19,0,0,1,45.08,117c.4-.53.75-1,1.17-1.51a14.38,14.38,0,0,1,1.29-1.24,12.49,12.49,0,0,1,2.59-1.65A27.16,27.16,0,0,1,53,111.44l1.2-.39,1.3-.43c-.3.37-.57.7-.84,1S53.93,112.44,53.51,112.86ZM31.16,146.11c.91.6,1.88,1.16,2.82,1.7l.38.22c.9.52,1.79,1,2.67,1.57l.91.54c.67.39,1.36.8,2,1.23l.18.12a11.66,11.66,0,0,1-3.48,0,10.52,10.52,0,0,1-3.11-1,14.32,14.32,0,0,1-3.1-2.29,18.3,18.3,0,0,1-2.62-3.18c-.5-.74-.87-1.32-1.19-1.88l-.24-.45A39.57,39.57,0,0,0,31.16,146.11ZM38,147.33c-.67-.41-1.36-.8-2-1.2l-.83-.48c-.91-.56-1.86-1.14-2.81-1.75l-.29-.19c-.84-.55-1.72-1.12-2.5-1.74a33.48,33.48,0,0,1-2.63-2.28c-.42-.41-.86-.84-1.26-1.3l-.61-.73.76.49c.81.53,1.71,1.06,2.67,1.61l4.59,2.72A34.65,34.65,0,0,1,39.41,147a9.45,9.45,0,0,1,1.77,2.36l-.35-.23-1.4-.9ZM52.65,87c2.54-1.48,5.17-2.78,7.72-4,1.74-.86,3.52-1.74,5.29-2.68a27.34,27.34,0,0,1-5.49,5.21h0a10,10,0,0,1-5.58,1.55C53.93,87.08,53.28,87.06,52.65,87ZM64.87,78.1c-1.75.93-3.53,1.8-5.26,2.65-2.47,1.21-5,2.46-7.49,3.88a13.05,13.05,0,0,1,7.44-5.55A28.29,28.29,0,0,1,64.87,78.1ZM49.22,63.9a13.49,13.49,0,0,1,.43-5.9A68.45,68.45,0,0,0,51,65.47c.45,2,.91,4.13,1.2,6.28-.36-.59-.68-1.17-1-1.77h0A22.14,22.14,0,0,1,49.22,63.9Zm5,6.08c-.29-1.65-.66-3.28-1-4.86-.86-3.8-1.75-7.71-1.5-11.91.23.46.46.91.69,1.35a28.69,28.69,0,0,1,2.13,4.87C55.26,61.91,55.14,65.87,54.22,70Zm10.58-12.3.14-.26c1.45-1.57,4.11-2.71,8.13-3.48,2.42-.46,5-.73,7.19-1l.35,0a48.08,48.08,0,0,1-8,2.42A50.14,50.14,0,0,0,64.81,57.69Zm13.53-1.43a28.86,28.86,0,0,1-3.75,2.66A11.31,11.31,0,0,1,65.41,60a51.93,51.93,0,0,1,7.85-2.39C74.92,57.22,76.64,56.8,78.34,56.26ZM20.68,133.82h0Z"/><path d="M26.48,260.92a1,1,0,0,1,0-.28q0-.39.42-.39a2.64,2.64,0,0,1,.58.1,7.14,7.14,0,0,1,.78.24,3,3,0,0,1,.67.34q.28.19.28.36a2.81,2.81,0,0,1-.42,1.06q-.42.76-1.09,1.85t-1.53,2.37l-1.72,2.57q-.86,1.28-1.64,2.49t-1.33,2.11a3.6,3.6,0,0,0-.39.73,5.72,5.72,0,0,0-.28,1,12.34,12.34,0,0,0-.18,1.35q-.06.78-.06,1.85c0,.26,0,.54,0,.83s0,.59,0,.89-.12.31-.36.42a5.67,5.67,0,0,1-.83.29,5.78,5.78,0,0,1-.89.18l-.52,0q-.26,0-.26-.36a1.58,1.58,0,0,1,.13-.65c.09-.19.18-.41.28-.65a5.45,5.45,0,0,0,.26-.88,6.63,6.63,0,0,0,.11-1.36,5.3,5.3,0,0,0-.15-1.25,4,4,0,0,0-.68-1.35A13.88,13.88,0,0,0,16.1,273q-1.06-1-2.86-2.53t-4.5-3.62l-6.5-5.07a1.36,1.36,0,0,1-.44-.55,1.78,1.78,0,0,1-.11-.65.76.76,0,0,1,.21-.39,3.58,3.58,0,0,1,.54-.52,3.81,3.81,0,0,1,.73-.45,1.82,1.82,0,0,1,.8-.19.29.29,0,0,1,.28.16,3.81,3.81,0,0,1,.16.39q.08.23.21.5a1.52,1.52,0,0,0,.39.5q2.76,2.63,5.2,4.71T14.57,269q1.93,1.61,3.23,2.79a9,9,0,0,1,1.79,2.06,22.54,22.54,0,0,1,1.17-2.21q.75-1.27,1.62-2.68l1.79-2.89q.91-1.48,1.69-2.84a4.92,4.92,0,0,0,.5-1.15,3.54,3.54,0,0,0,.15-.89A1,1,0,0,0,26.48,260.92Z"/><path d="M32.95,266.5a9.09,9.09,0,0,1,1.46-3,7.56,7.56,0,0,1,6.4-3.09,6.2,6.2,0,0,1,2.47.5,5.46,5.46,0,0,1,2,1.56,7.93,7.93,0,0,1,1.4,2.7,12.93,12.93,0,0,1,.52,3.88,10.16,10.16,0,0,1-.67,3.8,8.34,8.34,0,0,1-1.77,2.78,7.61,7.61,0,0,1-5.46,2.29,6.25,6.25,0,0,1-2.44-.52,6.53,6.53,0,0,1-2.21-1.54,8,8,0,0,1-1.59-2.55,9.4,9.4,0,0,1-.62-3.54A12.21,12.21,0,0,1,32.95,266.5Zm2.11,4.42a7.74,7.74,0,0,0,.83,2.19,6.2,6.2,0,0,0,1.64,1.9,4.2,4.2,0,0,0,2.67.81,5.24,5.24,0,0,0,1.53-.26,4.15,4.15,0,0,0,1.61-1,5.41,5.41,0,0,0,1.27-2,8.66,8.66,0,0,0,.5-3.2,11.57,11.57,0,0,0-.42-3.38,6.39,6.39,0,0,0-1.1-2.19,4.11,4.11,0,0,0-1.56-1.2,4.62,4.62,0,0,0-1.82-.37,4.55,4.55,0,0,0-2.28.57,5.25,5.25,0,0,0-1.69,1.51,6.94,6.94,0,0,0-1,2.21,9.79,9.79,0,0,0-.36,2.66A9.07,9.07,0,0,0,35.06,270.92Z"/><path d="M51.83,260.62l.45-.15.62-.16.63-.13a3.25,3.25,0,0,1,.47,0q.62,0,.62.81a10.57,10.57,0,0,1-.08,1.15,12.61,12.61,0,0,0-.08,1.48,4.76,4.76,0,0,0,.55,1.92A17.73,17.73,0,0,0,56.47,268a26.16,26.16,0,0,0,2.11,2.65A22.69,22.69,0,0,0,61.1,273a14.43,14.43,0,0,0,2.65,1.74,5.68,5.68,0,0,0,2.53.67,6,6,0,0,0,3-.75,9.14,9.14,0,0,0,2.37-1.92,12.85,12.85,0,0,0,1.79-2.6,20.13,20.13,0,0,0,1.22-2.81,19.51,19.51,0,0,0,.7-2.55,10.12,10.12,0,0,0,.23-1.79,11,11,0,0,1,.1-1.67.63.63,0,0,1,.68-.6,6.57,6.57,0,0,1,1.72.65,1.43,1.43,0,0,1,.42.32.83.83,0,0,1,.13.52,9.52,9.52,0,0,1-.37,1.43,26.25,26.25,0,0,1-1.14,3,39.76,39.76,0,0,1-1.88,3.67,20.44,20.44,0,0,1-2.62,3.59,14.32,14.32,0,0,1-3.35,2.73,7.92,7.92,0,0,1-4.09,1.09,5.62,5.62,0,0,1-2.84-.93,18.46,18.46,0,0,1-3.1-2.39,33.27,33.27,0,0,1-3-3.28,37.24,37.24,0,0,1-2.62-3.62,25,25,0,0,1-1.82-3.38,6.84,6.84,0,0,1-.68-2.55Q51.08,261,51.83,260.62Z"/><path d="M96,271.78a2.58,2.58,0,0,0-.75.11.92.92,0,0,0-.44.31,2,2,0,0,0-.29.6A9.38,9.38,0,0,1,94,274l-.68,1.36-.62,1.25a4.41,4.41,0,0,0-.34.86,1.73,1.73,0,0,1-.24.73.57.57,0,0,1-.37.21l-.76.08-.86.08-.75,0-.39,0a.26.26,0,0,1-.24-.18.82.82,0,0,1-.08-.34,1.44,1.44,0,0,1,.08-.6.48.48,0,0,1,.31-.21,3.3,3.3,0,0,0,1-.47,2.44,2.44,0,0,0,.83-1.22,8.64,8.64,0,0,1,.57-1.15l1.22-2.24,1.54-2.86q.83-1.54,1.53-3t1.15-2.74a6.38,6.38,0,0,0,.45-2,.89.89,0,0,0-.06-.28l-.15-.41-.15-.41a.89.89,0,0,1-.06-.28.52.52,0,0,1,.21-.36,3.13,3.13,0,0,1,.5-.37,3.73,3.73,0,0,1,.58-.29,1.37,1.37,0,0,1,.46-.11q.19,0,.6.41a3.36,3.36,0,0,1,.67,1q1.1,2.34,2.34,5t3.09,5.91q1.17,2,2,3.25t1.28,1.84c.33.42.56.71.7.86s.21.26.21.32a.47.47,0,0,1-.24.47,1.18,1.18,0,0,1-.5.11l-.55,0c-.24,0-.49-.05-.75-.1l-.73-.13a2.92,2.92,0,0,1-.5-.13.76.76,0,0,1-.49-.41,3.74,3.74,0,0,1-.32-.76q-.1-.29-.41-1t-.67-1.41q-.36-.72-.68-1.28t-.49-.63a4.06,4.06,0,0,0-1.1-.28q-.78-.11-1.69-.18t-1.79-.08l-1.36,0Zm3.79-6.55a6.63,6.63,0,0,1-.5-1.15c-.08-.27-.19-.41-.34-.41s-.12,0-.18.15a2.6,2.6,0,0,0-.16.37c-.05.15-.1.3-.15.46a2.52,2.52,0,0,1-.16.42l-1.69,3.44c-.24.5-.41.85-.52,1.06a1.14,1.14,0,0,0-.16.47q0,.23.55.23h5.88Z"/><path d="M123.1,259.84a4.91,4.91,0,0,1,1,3.12,6.62,6.62,0,0,1-.24,1.87,5.43,5.43,0,0,1-.63,1.43,4.57,4.57,0,0,1-.84,1,3.92,3.92,0,0,1-.88.58l-2.31,1v.07a3.66,3.66,0,0,1,.62.16,1,1,0,0,1,.45.36q1.37,1.69,2.65,3t2.29,2.26q1,.94,1.63,1.49t.62.68a1,1,0,0,1-.08.41,1.68,1.68,0,0,1-.34.44l-.44.42a.46.46,0,0,1-.31.13h-.52a1.3,1.3,0,0,1-.47-.08,1.24,1.24,0,0,1-.47-.41l-1.09-1.33q-.63-.78-1.77-2l-3.51-3.8a1.63,1.63,0,0,0-.67-.47,2.41,2.41,0,0,0-.76-.11q0,.52,0,1.14c0,.41,0,.89,0,1.43v5.3a.88.88,0,0,1-.13.47.53.53,0,0,1-.49.21,2.74,2.74,0,0,1-.62-.1,5.55,5.55,0,0,1-.78-.26,3.37,3.37,0,0,1-.68-.37.57.57,0,0,1-.29-.44.82.82,0,0,1,.18-.42l.44-.62a3.89,3.89,0,0,0,.18-1.09q.08-.93.13-2.1t.08-2.31q0-1.14,0-1.72v-1.72q0-1.36,0-2.62t-.15-2.13a.42.42,0,0,0-.18-.34l-.29-.15a.81.81,0,0,1-.28-.21.7.7,0,0,1-.13-.47,1,1,0,0,1,.42-.85,10.31,10.31,0,0,1,1.69-1,16.1,16.1,0,0,1,1.66-.67,10.19,10.19,0,0,1,1.41-.37,6,6,0,0,1,1-.11A3.58,3.58,0,0,1,123.1,259.84Zm-5.51,8.35a3.79,3.79,0,0,0,.76-.33,8,8,0,0,0,1.43-.93,6.5,6.5,0,0,0,1.36-1.49,3.56,3.56,0,0,0,.6-2,3.24,3.24,0,0,0-.65-2.29,2.1,2.1,0,0,0-1.56-.67,3,3,0,0,0-1.17.26,2.18,2.18,0,0,0-1,.78,4.42,4.42,0,0,0-.16.85q-.07.55-.11,1.27t-.08,1.48q0,.76,0,1.45v1.4Q117.11,268.19,117.6,268.19Z"/><path d="M141.06,268.61a.63.63,0,0,1-.18.31,4.13,4.13,0,0,1-.44.44,5,5,0,0,1-.5.39.79.79,0,0,1-.41.16q-1.46.13-2.71.15l-2.23,0q0,3.9,1.53,5.87t4.87,2a2.33,2.33,0,0,1,1,.13.57.57,0,0,1,.24.55c0,.17-.16.35-.49.52a4,4,0,0,1-1.72.26,10.66,10.66,0,0,1-3.15-.41,6.86,6.86,0,0,1-2.18-1.09,5.28,5.28,0,0,1-1.38-1.58,7.93,7.93,0,0,1-.76-1.88,10.49,10.49,0,0,1-.32-2q-.07-1-.07-1.92a20.92,20.92,0,0,1,.6-5.44,11,11,0,0,1,1.58-3.54,5.6,5.6,0,0,1,2.26-1.92,6.48,6.48,0,0,1,2.65-.57,5.37,5.37,0,0,1,1.85.21.76.76,0,0,1,.49.76q0,.72-.62.71H139a3.7,3.7,0,0,0-1.51.32,3.27,3.27,0,0,0-1.33,1.22,8.35,8.35,0,0,0-1,2.45,19.69,19.69,0,0,0-.55,4,2.18,2.18,0,0,1,.62-.37,2.21,2.21,0,0,1,.85-.15h4.39Q141.06,268.22,141.06,268.61Z"/><path d="M154.62,262.37a6.13,6.13,0,0,1-.63,0,.62.62,0,0,1-.58-.41,1.9,1.9,0,0,1-.19-.83,1,1,0,0,1,.34-.62.94.94,0,0,1,.63-.36l.85,0,1.19.08,1.67.1q1,0,2.34,0,1.79,0,3.57-.13t3.57-.13c.32,0,.49.15.49.46a.66.66,0,0,1-.15.34,4,4,0,0,1-.36.44,2.35,2.35,0,0,1-.47.39,1.28,1.28,0,0,1-.49.19q-.49.06-1.12.1l-1.28.07q-.65,0-1.27,0h-1q-.16.94-.28,2.06t-.19,2.55q-.08,1.43-.13,3.23t0,4.11a4.07,4.07,0,0,0,.13,1,2.53,2.53,0,0,0,.44.91,2.25,2.25,0,0,0,.86.67,3.28,3.28,0,0,0,1.4.26,4.14,4.14,0,0,0,.57,0,4.09,4.09,0,0,1,.5,0,.26.26,0,0,1,.28.24,2.26,2.26,0,0,1,0,.44.94.94,0,0,1-.29.75,4,4,0,0,1-1,.49,3.39,3.39,0,0,1-1.12.23,4,4,0,0,1-1.74-.36,4.43,4.43,0,0,1-1.32-.93,4.17,4.17,0,0,1-.84-1.23,3.13,3.13,0,0,1-.29-1.25,5.61,5.61,0,0,1,.08-.85c.05-.35.11-.8.16-1.36s.11-1.26.16-2.08.08-1.81.08-3q0-1.46,0-2.86t-.19-2.86h-3.7A5.8,5.8,0,0,0,154.62,262.37Z"/><path d="M176.88,271.78a2.58,2.58,0,0,0-.75.11.92.92,0,0,0-.44.31,2,2,0,0,0-.29.6,9.38,9.38,0,0,1-.5,1.17l-.68,1.36-.62,1.25a4.41,4.41,0,0,0-.34.86,1.73,1.73,0,0,1-.24.73.57.57,0,0,1-.37.21l-.76.08-.86.08-.75,0-.39,0a.26.26,0,0,1-.24-.18.82.82,0,0,1-.08-.34,1.44,1.44,0,0,1,.08-.6.48.48,0,0,1,.31-.21,3.3,3.3,0,0,0,1-.47,2.44,2.44,0,0,0,.83-1.22,8.64,8.64,0,0,1,.57-1.15l1.22-2.24,1.54-2.86q.83-1.54,1.53-3t1.15-2.74a6.38,6.38,0,0,0,.45-2,.89.89,0,0,0-.06-.28l-.15-.41-.15-.41a.89.89,0,0,1-.06-.28.52.52,0,0,1,.21-.36,3.13,3.13,0,0,1,.5-.37,3.73,3.73,0,0,1,.58-.29,1.37,1.37,0,0,1,.46-.11q.19,0,.6.41a3.36,3.36,0,0,1,.67,1q1.1,2.34,2.34,5t3.09,5.91q1.17,2,2,3.25t1.28,1.84c.33.42.56.71.7.86s.21.26.21.32a.47.47,0,0,1-.24.47,1.18,1.18,0,0,1-.5.11l-.55,0c-.24,0-.49-.05-.75-.1l-.73-.13a2.92,2.92,0,0,1-.5-.13.76.76,0,0,1-.49-.41,3.74,3.74,0,0,1-.32-.76q-.1-.29-.41-1t-.67-1.41q-.36-.72-.68-1.28t-.49-.63A4.06,4.06,0,0,0,183,272q-.78-.11-1.69-.18t-1.79-.08l-1.36,0Zm3.79-6.55a6.63,6.63,0,0,1-.5-1.15c-.08-.27-.19-.41-.34-.41s-.12,0-.18.15a2.6,2.6,0,0,0-.16.37c-.05.15-.1.3-.15.46a2.52,2.52,0,0,1-.16.42l-1.69,3.44c-.24.5-.41.85-.52,1.06a1.14,1.14,0,0,0-.16.47q0,.23.55.23h5.88Z"/><path d="M205.59,276.13a1.61,1.61,0,0,1,.81-.28c.37,0,.55.14.55.42a3.17,3.17,0,0,1-.08.47,6.09,6.09,0,0,1-.23.78,6,6,0,0,1-.32.75q-.18.34-.37.34a1.66,1.66,0,0,1-.54-.08l-.73-.24a.74.74,0,0,0-.23,0l-.55,0-1.06,0-1.71,0-1.77,0-1.06,0a2.82,2.82,0,0,0-.57.07,1.69,1.69,0,0,0-.31.11,2.09,2.09,0,0,1-1,.23.58.58,0,0,1-.41-.23,4.77,4.77,0,0,1-.41-.5,2.83,2.83,0,0,1-.31-.55,1.25,1.25,0,0,1-.11-.37,1,1,0,0,1,.33-.6,1.34,1.34,0,0,0,.32-1c0-.35,0-.77,0-1.27s0-1.08,0-1.75V267.8a34.76,34.76,0,0,0-.16-3.79,22.15,22.15,0,0,0-.34-2.21,5.05,5.05,0,0,0-.34-1.11,1.14,1.14,0,0,1-.16-.5c0-.11.1-.27.31-.49a6.14,6.14,0,0,1,.71-.63,7.1,7.1,0,0,1,.81-.54,1.47,1.47,0,0,1,.57-.23,1.67,1.67,0,0,1,.72.21.64.64,0,0,1,.42.57,2.5,2.5,0,0,1-.13.71,3,3,0,0,0-.13.88q0,1.46-.1,2.89t-.1,2.79q0,.91,0,1.71c0,.53,0,1.15,0,1.87s0,1.36-.06,2.06-.09,1.36-.13,2-.09,1.14-.13,1.59-.06.78-.06,1,.13.26.39.26a1,1,0,0,0,.34-.06,1.17,1.17,0,0,1,.41-.07l5.88-.23A2,2,0,0,0,205.59,276.13Z"/><path d="M220.77,268.61a.63.63,0,0,1-.18.31,4.13,4.13,0,0,1-.44.44,5,5,0,0,1-.5.39.79.79,0,0,1-.41.16q-1.46.13-2.71.15l-2.23,0q0,3.9,1.53,5.87t4.87,2a2.33,2.33,0,0,1,1,.13.57.57,0,0,1,.24.55c0,.17-.16.35-.49.52a4,4,0,0,1-1.72.26,10.66,10.66,0,0,1-3.15-.41,6.86,6.86,0,0,1-2.18-1.09,5.28,5.28,0,0,1-1.38-1.58,7.93,7.93,0,0,1-.76-1.88,10.49,10.49,0,0,1-.32-2q-.07-1-.07-1.92a20.92,20.92,0,0,1,.6-5.44,11,11,0,0,1,1.58-3.54,5.6,5.6,0,0,1,2.26-1.92,6.48,6.48,0,0,1,2.65-.57,5.37,5.37,0,0,1,1.85.21.76.76,0,0,1,.49.76q0,.72-.62.71h-1.92a3.7,3.7,0,0,0-1.51.32,3.27,3.27,0,0,0-1.33,1.22,8.35,8.35,0,0,0-1,2.45,19.69,19.69,0,0,0-.55,4,2.18,2.18,0,0,1,.62-.37,2.21,2.21,0,0,1,.85-.15h4.39Q220.77,268.22,220.77,268.61Z"/><path d="M229.75,266A6.46,6.46,0,0,0,228.4,264l-1.3-1.41q-.49-.54-.75-.88a3,3,0,0,1-.34-.52.82.82,0,0,1-.08-.34,1,1,0,0,1,.42-.65,1.56,1.56,0,0,1,1-.36.54.54,0,0,1,.21,0,2.5,2.5,0,0,1,.42.29c.21.16.49.41.86.75s.87.81,1.49,1.41q2.57,2.5,4.73,4.39t4.24,3.41q2.08,1.53,4.21,2.81t4.63,2.58l.11-1.27c0-.37.06-.72.08-1s0-.66,0-1,0-.7,0-1.09q0-2.15-.06-3.93t-.13-3.64a3.17,3.17,0,0,0-.19-1,3.67,3.67,0,0,0-.34-.65l-.32-.45a.74.74,0,0,1-.15-.46.59.59,0,0,1,.26-.49,2,2,0,0,1,.63-.31,6,6,0,0,1,.78-.18,4.57,4.57,0,0,1,.7-.07,2.37,2.37,0,0,1,.72.11.5.5,0,0,1,.36.54,4.34,4.34,0,0,1-.08.71q-.08.46-.19,1.61t-.19,3.28q-.08,2.13-.08,5.77,0,1.11,0,1.93t.13,1.46q.08.63.13,1.12c0,.33,0,.64,0,.94a1.16,1.16,0,0,1-.26.75,2.36,2.36,0,0,1-.6.54,2.66,2.66,0,0,1-.7.31,2.32,2.32,0,0,1-.58.1c-.13,0-.24-.09-.34-.28l-.34-.65q-.19-.37-.47-.8a2.32,2.32,0,0,0-.76-.72L241.92,274q-1.92-1.12-3.31-2t-2.37-1.51q-1-.65-1.71-1.2t-1.32-1.06q-.58-.5-1.17-1.06-.1.72-.18,1.95t-.18,2.68q-.1,1.45-.24,2.91t-.37,2.63a2.21,2.21,0,0,1-.52,1.11,1.06,1.06,0,0,1-.75.36,1.67,1.67,0,0,1-.41-.07,1.71,1.71,0,0,1-.45-.19,1.58,1.58,0,0,1-.36-.29.52.52,0,0,1-.15-.36,2.93,2.93,0,0,1,.28-1,16,16,0,0,0,.58-1.79q.31-1.12.58-2.73a22.7,22.7,0,0,0,.28-3.79A7.34,7.34,0,0,0,229.75,266Z"/><path d="M256.59,262.37a6.13,6.13,0,0,1-.63,0,.62.62,0,0,1-.58-.41,1.9,1.9,0,0,1-.19-.83,1,1,0,0,1,.34-.62.94.94,0,0,1,.63-.36l.85,0,1.19.08,1.67.1q1,0,2.34,0,1.79,0,3.57-.13t3.57-.13c.32,0,.49.15.49.46a.66.66,0,0,1-.15.34,4,4,0,0,1-.36.44,2.35,2.35,0,0,1-.47.39,1.28,1.28,0,0,1-.49.19q-.49.06-1.12.1l-1.28.07q-.65,0-1.27,0h-1q-.16.94-.28,2.06t-.19,2.55q-.08,1.43-.13,3.23t0,4.11a4.07,4.07,0,0,0,.13,1,2.53,2.53,0,0,0,.44.91,2.25,2.25,0,0,0,.86.67,3.28,3.28,0,0,0,1.4.26,4.14,4.14,0,0,0,.57,0,4.09,4.09,0,0,1,.5,0,.26.26,0,0,1,.28.24,2.26,2.26,0,0,1,0,.44.94.94,0,0,1-.29.75,4,4,0,0,1-1,.49,3.39,3.39,0,0,1-1.12.23,4,4,0,0,1-1.74-.36,4.43,4.43,0,0,1-1.32-.93,4.17,4.17,0,0,1-.84-1.23,3.13,3.13,0,0,1-.29-1.25,5.61,5.61,0,0,1,.08-.85c.05-.35.11-.8.16-1.36s.11-1.26.16-2.08.08-1.81.08-3q0-1.46,0-2.86t-.19-2.86h-3.7A5.8,5.8,0,0,0,256.59,262.37Z"/><path d="M283.61,268.61a.63.63,0,0,1-.18.31,4.13,4.13,0,0,1-.44.44,5,5,0,0,1-.5.39.79.79,0,0,1-.41.16q-1.46.13-2.71.15l-2.23,0q0,3.9,1.53,5.87t4.87,2a2.33,2.33,0,0,1,1,.13.57.57,0,0,1,.24.55c0,.17-.16.35-.49.52a4,4,0,0,1-1.72.26,10.66,10.66,0,0,1-3.15-.41,6.86,6.86,0,0,1-2.18-1.09,5.28,5.28,0,0,1-1.38-1.58,7.93,7.93,0,0,1-.76-1.88,10.49,10.49,0,0,1-.32-2q-.07-1-.07-1.92a20.92,20.92,0,0,1,.6-5.44,11,11,0,0,1,1.58-3.54,5.6,5.6,0,0,1,2.26-1.92,6.48,6.48,0,0,1,2.65-.57,5.37,5.37,0,0,1,1.85.21.76.76,0,0,1,.49.76q0,.72-.62.71h-1.92a3.7,3.7,0,0,0-1.51.32,3.27,3.27,0,0,0-1.33,1.22,8.35,8.35,0,0,0-1,2.45,19.69,19.69,0,0,0-.55,4,2.18,2.18,0,0,1,.62-.37,2.21,2.21,0,0,1,.85-.15H283Q283.61,268.22,283.61,268.61Z"/><path d="M294.15,278.93l-.57-.08-1.82-.23a2.77,2.77,0,0,1-.8-.18.39.39,0,0,1-.24-.37.55.55,0,0,1,.15-.41l.33-.34a2.15,2.15,0,0,0,.34-.55,2.85,2.85,0,0,0,.19-1q.1-2,.16-4T292,268q0-.72,0-1.54t-.13-1.64q-.08-.81-.18-1.51t-.19-1.15a.39.39,0,0,0-.28-.34l-.42-.08a1.48,1.48,0,0,1-.39-.11q-.18-.08-.18-.44a.74.74,0,0,1,.24-.63,4.38,4.38,0,0,1,1.09-.44l2.28-.65q.71-.19,1.15-.28a4.09,4.09,0,0,1,.67-.08l.78.06a10.14,10.14,0,0,1,1.64.33,13.63,13.63,0,0,1,2.06.76,7.43,7.43,0,0,1,2,1.38,7.19,7.19,0,0,1,1.54,2.19,7.42,7.42,0,0,1,.62,3.17q0,1.69-.1,3a14.52,14.52,0,0,1-.34,2.29,9.6,9.6,0,0,1-.63,1.84,10.37,10.37,0,0,1-1,1.64,4.12,4.12,0,0,1-1,.93,9.5,9.5,0,0,1-1.4.8q-.76.36-1.58.65t-1.51.49c-.47.13-.87.23-1.22.31a4.07,4.07,0,0,1-.72.11A4,4,0,0,1,294.15,278.93ZM294,273q0,1.19,0,2.19a2.91,2.91,0,0,0,.26,1.56,1,1,0,0,0,.85.33,9.34,9.34,0,0,0,2.78-.39A4.69,4.69,0,0,0,300,275.3a7.22,7.22,0,0,0,1.41-2.83,17.28,17.28,0,0,0,.5-4.58,7.3,7.3,0,0,0-.72-3.41,7.39,7.39,0,0,0-1.67-2.19,6.46,6.46,0,0,0-1.9-1.19,4.49,4.49,0,0,0-1.4-.36,3.91,3.91,0,0,0-1.2.21,4.27,4.27,0,0,0-1,.47v9.2Q294,271.86,294,273Z"/><path d="M42.35,304.87q0-1,0-1.82a7.55,7.55,0,0,0,0-.76,1,1,0,0,0-.23-.54,2.31,2.31,0,0,1-.44-.63,1.39,1.39,0,0,1-.11-.54,1,1,0,0,1,.29-.55,5.07,5.07,0,0,1,.68-.68,6.39,6.39,0,0,1,.8-.57,1.38,1.38,0,0,1,.63-.24,1.62,1.62,0,0,1,.81.28q.45.28.45.47a2.33,2.33,0,0,1-.15.8,3.45,3.45,0,0,0-.18,1q-.13,1.43-.21,4.79T44.55,315a8.68,8.68,0,0,1-.24,2.58.84.84,0,0,1-.8.63,1,1,0,0,1-.41-.08.7.7,0,0,1-.31-.41,4.11,4.11,0,0,1-.21-1q-.08-.66-.11-1.85t0-3q0-1.8,0-4.37Q42.4,305.85,42.35,304.87Z"/><path d="M54.67,305A6.46,6.46,0,0,0,53.32,303L52,301.54q-.49-.54-.75-.88a3,3,0,0,1-.34-.52.82.82,0,0,1-.08-.34,1,1,0,0,1,.42-.65,1.56,1.56,0,0,1,1-.36.54.54,0,0,1,.21,0,2.5,2.5,0,0,1,.42.29c.21.16.49.41.86.75s.87.81,1.49,1.41q2.57,2.5,4.73,4.39t4.24,3.41q2.08,1.53,4.21,2.81t4.63,2.58l.11-1.27c0-.37.06-.72.08-1s0-.66,0-1,0-.7,0-1.09q0-2.15-.06-3.93t-.13-3.64a3.17,3.17,0,0,0-.19-1,3.67,3.67,0,0,0-.34-.65l-.32-.45a.74.74,0,0,1-.15-.46.59.59,0,0,1,.26-.49,2,2,0,0,1,.63-.31,6,6,0,0,1,.78-.18,4.57,4.57,0,0,1,.7-.07,2.37,2.37,0,0,1,.72.11.5.5,0,0,1,.36.54,4.34,4.34,0,0,1-.08.71q-.08.46-.19,1.61t-.19,3.28q-.08,2.13-.08,5.77,0,1.11,0,1.93t.13,1.46q.08.63.13,1.12c0,.33,0,.64,0,.94a1.16,1.16,0,0,1-.26.75,2.36,2.36,0,0,1-.6.54,2.66,2.66,0,0,1-.7.31,2.32,2.32,0,0,1-.58.1c-.13,0-.24-.09-.34-.28l-.34-.65q-.19-.37-.47-.8a2.32,2.32,0,0,0-.76-.72L66.84,313q-1.92-1.12-3.31-2t-2.37-1.51q-1-.65-1.71-1.2t-1.32-1.06q-.58-.5-1.17-1.06-.1.72-.18,1.95t-.18,2.68q-.1,1.45-.24,2.91T56,316.38a2.21,2.21,0,0,1-.52,1.11,1.06,1.06,0,0,1-.75.36,1.67,1.67,0,0,1-.41-.07,1.71,1.71,0,0,1-.45-.19,1.58,1.58,0,0,1-.36-.29.52.52,0,0,1-.15-.36,2.93,2.93,0,0,1,.28-1,16,16,0,0,0,.58-1.79q.31-1.12.58-2.73a22.7,22.7,0,0,0,.28-3.79A7.34,7.34,0,0,0,54.67,305Z"/><path d="M82.32,315.78a.43.43,0,0,1,.31-.15,2.48,2.48,0,0,1,1.07.31,3.38,3.38,0,0,0,1.53.31,1.8,1.8,0,0,0,1.41-.6,1.93,1.93,0,0,0,.54-1.32,4.7,4.7,0,0,0-.31-1.53q-.31-.88-.76-1.87t-1-2q-.54-1.06-1-2T83.36,305a4.63,4.63,0,0,1-.31-1.49,4.41,4.41,0,0,1,.44-1.58,11.35,11.35,0,0,1,1.17-2.06,8.65,8.65,0,0,1,1.69-1.8,3.17,3.17,0,0,1,2-.76,6.51,6.51,0,0,1,.67,0,5.67,5.67,0,0,1,.86.16,3.39,3.39,0,0,1,.75.29.51.51,0,0,1,.32.44,1.07,1.07,0,0,1-.24.85,2.26,2.26,0,0,1-1.15.23,4.51,4.51,0,0,0-3.09,1,3.09,3.09,0,0,0-.94,2.29,5.65,5.65,0,0,0,.55,2.13q.55,1.28,1.22,2.76t1.22,3.06a9.1,9.1,0,0,1,.55,3,7.05,7.05,0,0,1-.16,1.07,6.57,6.57,0,0,1-.6,1.67,5.57,5.57,0,0,1-1.17,1.54,2.67,2.67,0,0,1-1.9.68,3.67,3.67,0,0,1-.75-.1,6.53,6.53,0,0,1-.89-.26,6.87,6.87,0,0,1-.78-.34.84.84,0,0,1-.41-.34c-.06-.19-.12-.38-.16-.57a2.59,2.59,0,0,1-.07-.6A.7.7,0,0,1,82.32,315.78Z"/><path d="M96.85,305a34.55,34.55,0,0,0-.24-3.46,1.72,1.72,0,0,0-.1-.36.51.51,0,0,0-.26-.26q-.49-.26-.49-.58a1.11,1.11,0,0,1,.57-.86,7.24,7.24,0,0,1,1.32-.73,9.56,9.56,0,0,1,1.54-.52,5.53,5.53,0,0,1,1.22-.19,11.54,11.54,0,0,1,4,.81,3,3,0,0,1,.84.62,6.33,6.33,0,0,1,.76.93,5.34,5.34,0,0,1,.55,1,2.72,2.72,0,0,1,.21,1,6.16,6.16,0,0,1-.55,3.12,9.14,9.14,0,0,1-.84,1.12,15.54,15.54,0,0,1-1.09,1.14,10.07,10.07,0,0,1-1.07.89,1.57,1.57,0,0,1-.76.36,2,2,0,0,1-.63-.13,6.79,6.79,0,0,1-.71-.29,3,3,0,0,1-.58-.36c-.16-.13-.24-.23-.24-.29a.33.33,0,0,1,.16-.28,1.87,1.87,0,0,1,.62-.21,4.34,4.34,0,0,0,2.47-1.36,3.42,3.42,0,0,0,.91-2.31,7.62,7.62,0,0,0-.11-1.19,5.42,5.42,0,0,0-.41-1.35,3.29,3.29,0,0,0-.8-1.1,1.8,1.8,0,0,0-1.25-.46,4.26,4.26,0,0,0-1.32.19,6.06,6.06,0,0,0-1.25.58q-.07.55-.13,1.32t-.11,1.59q0,.83-.08,1.64t0,1.46v8.58a6.4,6.4,0,0,1-.41,2.63,1.44,1.44,0,0,1-1.41.85q-.55,0-.55-.49a1,1,0,0,1,0-.29l.13-.44a4.35,4.35,0,0,0,.13-.75q0-.47,0-1.25v-4.84Q96.93,307.38,96.85,305Z"/><path d="M113.94,304.87q0-1,0-1.82a7.55,7.55,0,0,0,0-.76,1,1,0,0,0-.23-.54,2.31,2.31,0,0,1-.44-.63,1.39,1.39,0,0,1-.11-.54,1,1,0,0,1,.29-.55,5.07,5.07,0,0,1,.68-.68,6.39,6.39,0,0,1,.8-.57,1.38,1.38,0,0,1,.63-.24,1.62,1.62,0,0,1,.81.28q.45.28.45.47a2.33,2.33,0,0,1-.15.8,3.45,3.45,0,0,0-.18,1q-.13,1.43-.21,4.79t-.08,9.21a8.68,8.68,0,0,1-.24,2.58.84.84,0,0,1-.8.63,1,1,0,0,1-.41-.08.7.7,0,0,1-.31-.41,4.11,4.11,0,0,1-.21-1q-.08-.66-.11-1.85t0-3q0-1.8,0-4.37Q114,305.85,113.94,304.87Z"/><path d="M133.6,298.83a4.91,4.91,0,0,1,1,3.12,6.62,6.62,0,0,1-.24,1.87,5.43,5.43,0,0,1-.63,1.43,4.57,4.57,0,0,1-.84,1,3.92,3.92,0,0,1-.88.58l-2.31,1v.07a3.66,3.66,0,0,1,.62.16,1,1,0,0,1,.45.36q1.37,1.69,2.65,3t2.29,2.26q1,.94,1.63,1.49t.62.68a1,1,0,0,1-.08.41,1.68,1.68,0,0,1-.34.44l-.44.42a.46.46,0,0,1-.31.13h-.52a1.3,1.3,0,0,1-.47-.08,1.24,1.24,0,0,1-.47-.41l-1.09-1.33q-.63-.78-1.77-2l-3.51-3.8a1.63,1.63,0,0,0-.67-.47,2.41,2.41,0,0,0-.76-.11q0,.52,0,1.14c0,.41,0,.89,0,1.43v5.3a.88.88,0,0,1-.13.47.53.53,0,0,1-.49.21,2.74,2.74,0,0,1-.62-.1,5.55,5.55,0,0,1-.78-.26,3.37,3.37,0,0,1-.68-.37.57.57,0,0,1-.29-.44.82.82,0,0,1,.18-.42l.44-.62a3.89,3.89,0,0,0,.18-1.09q.08-.93.13-2.1t.08-2.31q0-1.14,0-1.72v-1.72q0-1.36,0-2.62t-.15-2.13a.42.42,0,0,0-.18-.34l-.29-.15a.81.81,0,0,1-.28-.21.7.7,0,0,1-.13-.47,1,1,0,0,1,.42-.85,10.31,10.31,0,0,1,1.69-1,16.1,16.1,0,0,1,1.66-.67,10.19,10.19,0,0,1,1.41-.37,6,6,0,0,1,1-.11A3.58,3.58,0,0,1,133.6,298.83Zm-5.51,8.35a3.79,3.79,0,0,0,.76-.33,8,8,0,0,0,1.43-.93,6.5,6.5,0,0,0,1.36-1.49,3.56,3.56,0,0,0,.6-2,3.24,3.24,0,0,0-.65-2.29,2.1,2.1,0,0,0-1.56-.67,3,3,0,0,0-1.17.26,2.18,2.18,0,0,0-1,.78,4.42,4.42,0,0,0-.16.85q-.07.55-.11,1.27t-.08,1.48q0,.76,0,1.45v1.4Q127.6,307.18,128.09,307.18Z"/><path d="M151.55,307.6a.63.63,0,0,1-.18.31,4.13,4.13,0,0,1-.44.44,5,5,0,0,1-.5.39.79.79,0,0,1-.41.16q-1.46.13-2.71.15l-2.23,0q0,3.9,1.53,5.87t4.87,2a2.33,2.33,0,0,1,1,.13.57.57,0,0,1,.24.55c0,.17-.16.35-.49.52a4,4,0,0,1-1.72.26,10.66,10.66,0,0,1-3.15-.41,6.86,6.86,0,0,1-2.18-1.09,5.28,5.28,0,0,1-1.38-1.58,7.93,7.93,0,0,1-.76-1.88,10.49,10.49,0,0,1-.32-2q-.07-1-.07-1.92a20.92,20.92,0,0,1,.6-5.44,11,11,0,0,1,1.58-3.54,5.6,5.6,0,0,1,2.26-1.92,6.48,6.48,0,0,1,2.65-.57,5.37,5.37,0,0,1,1.85.21.76.76,0,0,1,.49.76q0,.72-.62.71H149.5a3.7,3.7,0,0,0-1.51.32,3.27,3.27,0,0,0-1.33,1.22,8.35,8.35,0,0,0-1,2.45,19.69,19.69,0,0,0-.55,4,2.18,2.18,0,0,1,.62-.37,2.21,2.21,0,0,1,.85-.15h4.39Q151.55,307.21,151.55,307.6Z"/><path d="M167.67,305.49a9.09,9.09,0,0,1,1.46-3,7.56,7.56,0,0,1,6.4-3.09,6.2,6.2,0,0,1,2.47.5,5.46,5.46,0,0,1,2,1.56,7.93,7.93,0,0,1,1.4,2.7A12.93,12.93,0,0,1,182,308a10.16,10.16,0,0,1-.67,3.8,8.34,8.34,0,0,1-1.77,2.78,7.61,7.61,0,0,1-5.46,2.29,6.25,6.25,0,0,1-2.44-.52,6.53,6.53,0,0,1-2.21-1.54,8,8,0,0,1-1.59-2.55,9.4,9.4,0,0,1-.62-3.54A12.21,12.21,0,0,1,167.67,305.49Zm2.11,4.42a7.74,7.74,0,0,0,.83,2.19,6.2,6.2,0,0,0,1.64,1.9,4.2,4.2,0,0,0,2.67.81,5.24,5.24,0,0,0,1.53-.26,4.15,4.15,0,0,0,1.61-1,5.41,5.41,0,0,0,1.27-2,8.66,8.66,0,0,0,.5-3.2,11.57,11.57,0,0,0-.42-3.38,6.39,6.39,0,0,0-1.1-2.19,4.11,4.11,0,0,0-1.56-1.2,4.62,4.62,0,0,0-1.82-.37,4.55,4.55,0,0,0-2.28.57,5.25,5.25,0,0,0-1.69,1.51,6.94,6.94,0,0,0-1,2.21,9.79,9.79,0,0,0-.36,2.66A9.07,9.07,0,0,0,169.78,309.91Z"/><path d="M187.08,301.36a6.13,6.13,0,0,1-.63,0,.62.62,0,0,1-.58-.41,1.9,1.9,0,0,1-.19-.83,1,1,0,0,1,.34-.62.94.94,0,0,1,.63-.36l.85,0,1.19.08,1.67.1q1,0,2.34,0,1.79,0,3.57-.13t3.57-.13c.32,0,.49.15.49.46a.66.66,0,0,1-.15.34,4,4,0,0,1-.36.44,2.35,2.35,0,0,1-.47.39,1.28,1.28,0,0,1-.49.19q-.49.06-1.12.1l-1.28.07q-.65,0-1.27,0h-1q-.16.94-.28,2.06t-.19,2.55q-.08,1.43-.13,3.23t0,4.11a4.07,4.07,0,0,0,.13,1,2.53,2.53,0,0,0,.44.91,2.25,2.25,0,0,0,.86.67,3.28,3.28,0,0,0,1.4.26,4.14,4.14,0,0,0,.57,0,4.09,4.09,0,0,1,.5,0,.26.26,0,0,1,.28.24,2.26,2.26,0,0,1,0,.44.94.94,0,0,1-.29.75,4,4,0,0,1-1,.49,3.39,3.39,0,0,1-1.12.23,4,4,0,0,1-1.74-.36,4.43,4.43,0,0,1-1.32-.93,4.17,4.17,0,0,1-.84-1.23,3.13,3.13,0,0,1-.29-1.25,5.61,5.61,0,0,1,.08-.85c.05-.35.11-.8.16-1.36s.11-1.26.16-2.08.08-1.81.08-3q0-1.46,0-2.86t-.19-2.86h-3.7A5.8,5.8,0,0,0,187.08,301.36Z"/><path d="M206.69,317.61a.52.52,0,0,1-.49-.21,1.15,1.15,0,0,1-.13-.6q0-1.69.1-3.51t.1-3.87v-1.88q0-1,0-2t0-1.82q0-.85-.07-1.46a1.07,1.07,0,0,0-.21-.67,2.59,2.59,0,0,0-.49-.49q-.28-.21-.49-.41a.6.6,0,0,1-.21-.46.77.77,0,0,1,.15-.32,2.94,2.94,0,0,1,.39-.47,2.89,2.89,0,0,1,.57-.44,1.3,1.3,0,0,1,.68-.19,2.54,2.54,0,0,1,.71.13,6.61,6.61,0,0,1,.81.31,4.08,4.08,0,0,1,.67.37q.28.19.28.36a2.31,2.31,0,0,1-.24.84,3.68,3.68,0,0,0-.28,1.33q0,1.17,0,2.44t-.08,2.47H217q0-.65,0-1.46t0-1.66a20.24,20.24,0,0,0-.1-2.08q-.1-.94-.1-1.4,0-.23.33-.42a3.88,3.88,0,0,1,.76-.34,6.54,6.54,0,0,1,.89-.23,4.52,4.52,0,0,1,.75-.08q.65,0,.65.45a.57.57,0,0,1-.08.28c-.05.1-.11.22-.18.36s-.14.32-.23.54a4.6,4.6,0,0,0-.23.85q-.1.58-.16,1.27t-.1,1.38q0,.7,0,1.36c0,.45,0,.83,0,1.15l.54,0,.54,0a.86.86,0,0,1,.41.08c.1.06.15.19.15.41a2.38,2.38,0,0,1-.19.8q-.19.5-.58.5l-.23,0a1.22,1.22,0,0,0-.29,0q-.33,0-.33.39l-.06,6.4a1.72,1.72,0,0,1-.08.47,3.79,3.79,0,0,1-.21.55,1.89,1.89,0,0,1-.31.47.54.54,0,0,1-.41.19,1,1,0,0,1-.63-.16,1,1,0,0,1-.21-.68l-.32-7.57q-.88,0-2.16,0l-2.58.11q-1.3.06-2.39.18a10.13,10.13,0,0,0-1.54.24,2.33,2.33,0,0,0-.13.6c0,.23,0,.43,0,.6v5.52Q208.16,317.61,206.69,317.61Z"/><path d="M237.27,307.6a.63.63,0,0,1-.18.31,4.13,4.13,0,0,1-.44.44,5,5,0,0,1-.5.39.79.79,0,0,1-.41.16q-1.46.13-2.71.15l-2.23,0q0,3.9,1.53,5.87t4.87,2a2.33,2.33,0,0,1,1,.13.57.57,0,0,1,.24.55c0,.17-.16.35-.49.52a4,4,0,0,1-1.72.26A10.66,10.66,0,0,1,233,318a6.86,6.86,0,0,1-2.18-1.09,5.28,5.28,0,0,1-1.38-1.58,7.93,7.93,0,0,1-.76-1.88,10.49,10.49,0,0,1-.32-2q-.07-1-.07-1.92a20.92,20.92,0,0,1,.6-5.44,11,11,0,0,1,1.58-3.54,5.6,5.6,0,0,1,2.26-1.92,6.48,6.48,0,0,1,2.65-.57,5.37,5.37,0,0,1,1.85.21.76.76,0,0,1,.49.76q0,.72-.62.71h-1.92a3.7,3.7,0,0,0-1.51.32,3.27,3.27,0,0,0-1.33,1.22,8.35,8.35,0,0,0-1,2.45,19.69,19.69,0,0,0-.55,4,2.18,2.18,0,0,1,.62-.37,2.21,2.21,0,0,1,.85-.15h4.39Q237.27,307.21,237.27,307.6Z"/><path d="M253.6,298.83a4.91,4.91,0,0,1,1,3.12,6.62,6.62,0,0,1-.24,1.87,5.43,5.43,0,0,1-.63,1.43,4.57,4.57,0,0,1-.84,1,3.92,3.92,0,0,1-.88.58l-2.31,1v.07a3.66,3.66,0,0,1,.62.16,1,1,0,0,1,.45.36q1.37,1.69,2.65,3t2.29,2.26q1,.94,1.63,1.49t.62.68a1,1,0,0,1-.08.41,1.68,1.68,0,0,1-.34.44l-.44.42a.46.46,0,0,1-.31.13h-.52a1.3,1.3,0,0,1-.47-.08,1.24,1.24,0,0,1-.47-.41l-1.09-1.33q-.63-.78-1.77-2l-3.51-3.8a1.63,1.63,0,0,0-.67-.47,2.41,2.41,0,0,0-.76-.11q0,.52,0,1.14c0,.41,0,.89,0,1.43v5.3a.88.88,0,0,1-.13.47.53.53,0,0,1-.49.21,2.74,2.74,0,0,1-.62-.1,5.55,5.55,0,0,1-.78-.26,3.37,3.37,0,0,1-.68-.37.57.57,0,0,1-.29-.44.82.82,0,0,1,.18-.42l.44-.62a3.89,3.89,0,0,0,.18-1.09q.08-.93.13-2.1t.08-2.31q0-1.14,0-1.72v-1.72q0-1.36,0-2.62t-.15-2.13a.42.42,0,0,0-.18-.34l-.29-.15a.81.81,0,0,1-.28-.21.7.7,0,0,1-.13-.47,1,1,0,0,1,.42-.85,10.31,10.31,0,0,1,1.69-1,16.1,16.1,0,0,1,1.66-.67,10.19,10.19,0,0,1,1.41-.37,6,6,0,0,1,1-.11A3.58,3.58,0,0,1,253.6,298.83Zm-5.51,8.35a3.79,3.79,0,0,0,.76-.33,8,8,0,0,0,1.43-.93,6.5,6.5,0,0,0,1.36-1.49,3.56,3.56,0,0,0,.6-2,3.24,3.24,0,0,0-.65-2.29,2.1,2.1,0,0,0-1.56-.67,3,3,0,0,0-1.17.26,2.18,2.18,0,0,0-1,.78,4.42,4.42,0,0,0-.16.85q-.07.55-.11,1.27t-.08,1.48q0,.76,0,1.45v1.4Q247.61,307.18,248.09,307.18Z"/><path d="M261.89,315.78a.43.43,0,0,1,.31-.15,2.48,2.48,0,0,1,1.07.31,3.38,3.38,0,0,0,1.53.31,1.8,1.8,0,0,0,1.41-.6,1.93,1.93,0,0,0,.54-1.32,4.7,4.7,0,0,0-.31-1.53q-.31-.88-.76-1.87t-1-2q-.54-1.06-1-2t-.76-1.87a4.63,4.63,0,0,1-.31-1.49,4.41,4.41,0,0,1,.44-1.58,11.35,11.35,0,0,1,1.17-2.06,8.65,8.65,0,0,1,1.69-1.8,3.17,3.17,0,0,1,2-.76,6.51,6.51,0,0,1,.67,0,5.67,5.67,0,0,1,.86.16,3.39,3.39,0,0,1,.75.29.51.51,0,0,1,.32.44,1.07,1.07,0,0,1-.24.85,2.26,2.26,0,0,1-1.15.23,4.51,4.51,0,0,0-3.09,1,3.09,3.09,0,0,0-.94,2.29,5.65,5.65,0,0,0,.55,2.13q.55,1.28,1.22,2.76t1.22,3.06a9.1,9.1,0,0,1,.55,3,7.05,7.05,0,0,1-.16,1.07,6.57,6.57,0,0,1-.6,1.67,5.57,5.57,0,0,1-1.17,1.54,2.67,2.67,0,0,1-1.9.68,3.67,3.67,0,0,1-.75-.1,6.53,6.53,0,0,1-.89-.26,6.87,6.87,0,0,1-.78-.34.84.84,0,0,1-.41-.34c-.06-.19-.12-.38-.16-.57a2.59,2.59,0,0,1-.07-.6A.7.7,0,0,1,261.89,315.78Z"/></svg>