<svg id="Layer_1" data-name="Layer 1" xmlns="http://www.w3.org/2000/svg" viewBox="0 0 94 88.47"><title>credit-card</title><path d="M34,15.06v8H77v7H15v-7h8v-8H7v56H87v-56Zm-19,47v-23H77v23Z"/><path d="M54.11,47.86a3.65,3.65,0,0,0-1.41-.26,3.11,3.11,0,0,0-2.49,1.07,4.89,4.89,0,0,0-1,3.28,4.89,4.89,0,0,0,1,3.28,3.12,3.12,0,0,0,2.51,1.07,3.07,3.07,0,0,0,2.48-1.07,4.91,4.91,0,0,0,1-3.28,4.91,4.91,0,0,0-1-3.28A2.78,2.78,0,0,0,54.11,47.86Zm0,6.27a1.68,1.68,0,0,1-2.8,0,4,4,0,0,1-.5-2.19,4.06,4.06,0,0,1,.5-2.2,1.66,1.66,0,0,1,2.8,0,4.07,4.07,0,0,1,.49,2.2A4,4,0,0,1,54.11,54.13Z"/><path d="M62.24,47.86a3.65,3.65,0,0,0-1.41-.26,3.11,3.11,0,0,0-2.49,1.07,4.89,4.89,0,0,0-1,3.28,4.89,4.89,0,0,0,1,3.28,3.12,3.12,0,0,0,2.51,1.07,3.07,3.07,0,0,0,2.48-1.07,4.91,4.91,0,0,0,1-3.28,4.91,4.91,0,0,0-1-3.28A2.78,2.78,0,0,0,62.24,47.86Zm0,6.27a1.68,1.68,0,0,1-2.8,0,4,4,0,0,1-.5-2.19,4.06,4.06,0,0,1,.5-2.2,1.66,1.66,0,0,1,2.8,0,4.07,4.07,0,0,1,.49,2.2A4,4,0,0,1,62.24,54.13Z"/><path d="M70.37,47.86A3.65,3.65,0,0,0,69,47.6a3.11,3.11,0,0,0-2.49,1.07,4.89,4.89,0,0,0-1,3.28,4.89,4.89,0,0,0,1,3.28A3.12,3.12,0,0,0,69,56.28a3.07,3.07,0,0,0,2.48-1.07,4.91,4.91,0,0,0,1-3.28,4.91,4.91,0,0,0-1-3.28A2.78,2.78,0,0,0,70.37,47.86Zm0,6.27a1.68,1.68,0,0,1-2.8,0,4,4,0,0,1-.5-2.19,4.06,4.06,0,0,1,.5-2.2,1.66,1.66,0,0,1,2.8,0,4.07,4.07,0,0,1,.49,2.2A4,4,0,0,1,70.37,54.13Z"/></svg>