<svg id="Layer_1" data-name="Layer 1" xmlns="http://www.w3.org/2000/svg" viewBox="0 0 94 88.47"><title>heart-check</title><path d="M17.42,36.58a16.64,16.64,0,0,1,.41-5.24c1.58-6.28,4.92-10.13,10.22-11.29a14.42,14.42,0,0,1,3-.46c4.07,0,7.48,2,10.37,6.12.21.29.42.56.71,1l4.79,6.61,3.59-6.36c2.21-3.9,4.63-6.19,7.62-7.19,5.45-1.82,9.41.5,11.78,2.38,4,3.2,6.2,8.47,5.69,14.47H85c.49-9-3-16.83-9.24-21.8a21.58,21.58,0,0,0-20.57-3.7,20.36,20.36,0,0,0-8.92,5.85,20.79,20.79,0,0,0-20.2-6.19c-8.85,1.94-14.83,8.56-17.29,18.34a24.41,24.41,0,0,0-.7,7.49Z"/><path d="M66.19,54.58a92.39,92.39,0,0,1-19,17.24A92.24,92.24,0,0,1,27,54.58H15.31c6.57,10,15.67,17.75,28.36,25.83a6.47,6.47,0,0,0,3.5.81,6.72,6.72,0,0,0,3.83-.9C62.95,72.18,71.5,63.58,77.77,54.58Z"/><path d="M36.5,40.82h8.2v1.61H41.53V51H39.67V42.43H36.5Z"/><path d="M49.12,40.82v4.27h4.46V40.82h1.86V51H53.58V46.71H49.12V51H47.26V40.82Z"/><path d="M61.39,40.82l4.51,7.25V40.82h1.86V51H65.87l-4.65-7.5V51H59.36V40.82Z"/><path d="M80.45,51H78.12l-2.69-3.63L73,51H70.76L74.37,46l-3.63-5.14H73l2.59,3.69,2.24-3.69h2.25l-3.45,5.11Z"/><path d="M26.63,36.64l-6.82,9.81L17,42.78l-3.34,2.57,4.63,5.72a1.91,1.91,0,0,0,1.67.52H20A1.84,1.84,0,0,0,21.66,51L30.06,39Z"/></svg>