<svg id="Layer_1" data-name="Layer 1" xmlns="http://www.w3.org/2000/svg" viewBox="0 0 94 88.47"><title>heart-75</title><path d="M75.74,14.8a21.51,21.51,0,0,0-20.57-3.47,20.62,20.62,0,0,0-8.92,6,20.76,20.76,0,0,0-20.2-6.13C17.21,13.1,11.23,19.3,8.77,29.07,6.4,38.47,10.22,46.29,13.3,51.36c6.69,11,16.34,20.29,30.37,29.23a6.56,6.56,0,0,0,3.5,1A6.87,6.87,0,0,0,51,80.43C63.63,71.82,72.47,63,78.83,52.82c2.82-4.53,5.5-9.58,6.09-15.77A25.49,25.49,0,0,0,75.74,14.8ZM17.39,34.47a15,15,0,0,1,.45-3.11c1.58-6.28,4.92-9.9,10.22-11.06a14,14,0,0,1,3-.34c4.07,0,7.48,2,10.37,6.18l.71,1,4.79,6.62,3.59-6.35c2.21-3.9,4.63-6.19,7.62-7.19a12,12,0,0,1,11.78,1.92,15.9,15.9,0,0,1,5.76,12.35Z"/></svg>