<svg id="Layer_1" data-name="Layer 1" xmlns="http://www.w3.org/2000/svg" viewBox="0 0 94 88.47"><title>heart</title><path d="M46.17,80.6a6.56,6.56,0,0,1-3.5-1C28.64,70.71,19,61.42,12.3,50.42,9.22,45.35,5.4,37.52,7.77,28.13c2.46-9.78,8.44-16,17.29-17.91a20.76,20.76,0,0,1,20.2,6.13,20.62,20.62,0,0,1,8.92-6,21.51,21.51,0,0,1,20.57,3.47,25.49,25.49,0,0,1,9.18,22.25c-.59,6.19-3.28,11.24-6.09,15.77-6.35,10.22-15.2,19-27.82,27.6A6.87,6.87,0,0,1,46.17,80.6ZM30.06,19a14,14,0,0,0-3,.34c-5.3,1.16-8.64,4.78-10.22,11.06-1.18,4.68-.15,9.21,3.46,15.14C26.05,55,34.07,62.85,46.16,70.76c10.75-7.53,18.31-15.13,23.72-23.83,2.21-3.56,4.32-7.45,4.73-11.72a16.05,16.05,0,0,0-5.69-14,12,12,0,0,0-11.78-1.92c-3,1-5.41,3.29-7.62,7.19L45.93,32.8l-4.79-6.62-.71-1C37.55,21.06,34.13,19,30.06,19Z"/></svg>