<svg id="Layer_1" data-name="Layer 1" xmlns="http://www.w3.org/2000/svg" viewBox="0 0 94 88.47"><title>heart-failed</title><path d="M6.33,39.25h8.48v1.66H11.54v8.92H9.61V40.91H6.33Z"/><path d="M24.29,42.49a3,3,0,0,1-.64,1.93,3.32,3.32,0,0,1-1.83,1.11l2.84,4.31H22.16l-2.33-4.13H18.36v4.13H16.43V39.25h3.92a4.34,4.34,0,0,1,2.92.9A2.91,2.91,0,0,1,24.29,42.49Zm-4.13,1.93a2.33,2.33,0,0,0,1.6-.48,1.62,1.62,0,0,0,.54-1.27,1.71,1.71,0,0,0-.49-1.27,2,2,0,0,0-1.47-.48h-2v3.51Z"/><path d="M28,39.25l2.33,4.22,2.45-4.22H35l-3.77,6.21v4.37H29.32V45.46l-3.64-6.21Z"/><path d="M43.36,39.25h2.41l3.47,10.59h-2l-.73-2.28H42.55l-.75,2.28h-2ZM43,46.1h3l-1.47-4.55Z"/><path d="M57.62,48.15A2.59,2.59,0,0,1,55,50.06a4.13,4.13,0,0,1-3.28-1.5,5.85,5.85,0,0,1-1.34-4,5.73,5.73,0,0,1,1.44-4.08A4.67,4.67,0,0,1,55.38,39a4.51,4.51,0,0,1,2.49.64,4.23,4.23,0,0,1,1.57,2l-2,.46a2.53,2.53,0,0,0-2.19-1.39,2.44,2.44,0,0,0-2,1,4.35,4.35,0,0,0-.83,2.79,4.43,4.43,0,0,0,.75,2.68,2.45,2.45,0,0,0,3.67.34,2.54,2.54,0,0,0,.68-1.88v-.07l-2.38,0V44.38H59.4v5.45H57.83Z"/><path d="M64.62,39.25H67L70.5,49.83h-2l-.73-2.28H63.8L63,49.83H61Zm-.33,6.85h3l-1.47-4.55Z"/><path d="M72.38,39.25H74.3V49.83H72.38Z"/><path d="M79.41,39.25l4.67,7.5v-7.5H86V49.83H84l-4.81-7.76v7.76H77.31V39.25Z"/><path d="M17.42,36.11a15.15,15.15,0,0,1,.41-5c1.58-6.28,4.92-10,10.22-11.17a14.2,14.2,0,0,1,3-.4c4.07,0,7.48,2,10.37,6.15.21.29.42.57.71,1l4.79,6.61,3.59-6.35c2.21-3.9,4.63-6.19,7.62-7.19a12,12,0,0,1,11.78,2.14c4,3.2,6.2,8.24,5.69,14.24H85c.49-9-3-16.6-9.24-21.56A21.55,21.55,0,0,0,55.17,11a20.5,20.5,0,0,0-8.92,5.91,20.78,20.78,0,0,0-20.2-6.16c-8.85,1.94-14.83,8.34-17.29,18.12a23,23,0,0,0-.7,7.27Z"/><path d="M66.19,54.11a92.39,92.39,0,0,1-19,17.24A92.24,92.24,0,0,1,27,54.11H15.31c6.57,10,15.67,18,28.36,26.06a6.54,6.54,0,0,0,3.5.92A6.84,6.84,0,0,0,51,80,101.75,101.75,0,0,0,77.77,54.11Z"/></svg>