<svg id="Layer_1" data-name="Layer 1" xmlns="http://www.w3.org/2000/svg" viewBox="0 0 94 88.47"><title>heart</title><path d="M47.17,81.07a6.56,6.56,0,0,1-3.5-1C29.64,71.18,20,61.89,13.3,50.89,10.22,45.82,6.4,38,8.77,28.6c2.46-9.78,8.44-16,17.29-17.91a20.76,20.76,0,0,1,20.2,6.13,20.62,20.62,0,0,1,8.92-6,21.51,21.51,0,0,1,20.57,3.47,25.49,25.49,0,0,1,9.18,22.25c-.59,6.19-3.28,11.24-6.09,15.77C72.47,62.57,63.63,71.35,51,80A6.87,6.87,0,0,1,47.17,81.07ZM31.06,19.49a14,14,0,0,0-3,.34c-5.3,1.16-8.64,4.78-10.22,11.06C16.66,35.57,17.69,40.1,21.3,46c5.75,9.47,13.77,17.3,25.87,25.21,10.75-7.53,18.31-15.13,23.72-23.83,2.21-3.56,4.32-7.45,4.73-11.72a16.05,16.05,0,0,0-5.69-14,12,12,0,0,0-11.78-1.92c-3,1-5.41,3.29-7.62,7.19l-3.59,6.35-4.79-6.62-.71-1C38.55,21.53,35.13,19.49,31.06,19.49Z"/></svg>