<svg id="Layer_1" data-name="Layer 1" xmlns="http://www.w3.org/2000/svg" viewBox="0 0 94 88.47"><title>heart-25</title><path d="M75.74,14.33a21.51,21.51,0,0,0-20.57-3.47,20.62,20.62,0,0,0-8.92,6,20.76,20.76,0,0,0-20.2-6.13C17.21,12.63,11.23,18.83,8.77,28.6,6.4,38,10.22,45.82,13.3,50.89c6.69,11,16.34,20.29,30.37,29.23a6.56,6.56,0,0,0,3.5,1A6.87,6.87,0,0,0,51,80c12.63-8.61,21.47-17.38,27.82-27.6,2.82-4.53,5.5-9.58,6.09-15.77A25.49,25.49,0,0,0,75.74,14.33Zm-.13,21.36c-.41,4.27-2.51,8.16-4.73,11.72A67.13,67.13,0,0,1,64.52,56H28.75A65.07,65.07,0,0,1,21.3,46c-3.6-5.93-4.64-10.46-3.46-15.14,1.58-6.28,4.92-9.9,10.22-11.06a14,14,0,0,1,3-.34c4.07,0,7.48,2,10.37,6.18l.71,1,4.79,6.62,3.59-6.35c2.21-3.9,4.63-6.19,7.62-7.19a12,12,0,0,1,11.78,1.92A16.05,16.05,0,0,1,75.61,35.69Z"/></svg>