<svg id="Layer_1" data-name="Layer 1" xmlns="http://www.w3.org/2000/svg" viewBox="0 0 94 88.47"><title>instagram</title><path d="M61,80.25H32.72c-1-.12-1.92-.31-2.89-.36C19.15,79.28,11,71.48,10.71,60.8c-.33-11.55-.3-23.13,0-34.69.24-9.44,6.54-16.56,15.69-18.54,2-.42,4-.6,6-.89H61.78c.84.12,1.67.29,2.51.34,9.37.55,16.35,6.31,18.54,15.46.52,2.17.69,4.42,1,6.64V57.44c-.12,1.08-.3,2.16-.37,3.25C83,70,77.18,77.06,68.08,79.22,65.78,79.76,63.39,79.92,61,80.25ZM76.9,43.44h0c0-5.21.14-10.42,0-15.63C76.58,19,71.62,13.86,62.8,13.67q-15.71-.34-31.43,0c-8.87.19-13.9,5.23-14.1,14.09q-.34,15.62,0,31.25c.2,9.09,5.24,14.08,14.32,14.26q15.62.31,31.25,0c8.67-.18,13.74-5.34,14-14C77,54,76.9,48.71,76.9,43.44Z"/><path d="M28.19,43.37A18.87,18.87,0,1,1,47,62.32,18.75,18.75,0,0,1,28.19,43.37Zm19-12.1A12.19,12.19,0,1,0,59.25,43.58,12.08,12.08,0,0,0,47.14,31.26Z"/><path d="M66.68,19.45a4.26,4.26,0,0,1,4.4,4.38,4.42,4.42,0,0,1-4.39,4.45,4.57,4.57,0,0,1-4.47-4.44A4.43,4.43,0,0,1,66.68,19.45Z"/></svg>