<svg id="Layer_1" data-name="Layer 1" xmlns="http://www.w3.org/2000/svg" viewBox="0 0 157.25 29.87"><title>logo-horizontal</title><path d="M19.11,20a4,4,0,0,0,2.36-.72,2.48,2.48,0,0,0,1-2.18,2.55,2.55,0,0,0-1.11-2.23,10.57,10.57,0,0,0-3.15-1.35,21.41,21.41,0,0,1-3-1,7.83,7.83,0,0,1-1.75-1.12,5.3,5.3,0,0,1-1.66-4.3A5.6,5.6,0,0,1,13.57,3,6.24,6.24,0,0,1,18.2,1.28a11.38,11.38,0,0,1,3,.41,10.79,10.79,0,0,0,1.91.41c.25,0,.47-.18.67-.53H24L24.21,7h-.43A16.56,16.56,0,0,0,21.1,3.25a4.25,4.25,0,0,0-3-1.4,3.86,3.86,0,0,0-2.55.76,2.52,2.52,0,0,0-.91,2,2.18,2.18,0,0,0,1.08,2,9.79,9.79,0,0,0,2.66,1.11q1.58.43,2.07.59t1.23.44a6.29,6.29,0,0,1,1.2.59,8.58,8.58,0,0,1,1,.77,3.68,3.68,0,0,1,.81,1,6.11,6.11,0,0,1,.72,3,6.16,6.16,0,0,1-1.8,4.64,6.52,6.52,0,0,1-4.74,1.75,17.65,17.65,0,0,1-3.49-.4q-2-.4-2.18-.4-.38,0-.72.8h-.37l-.27-6.36h.45a14.7,14.7,0,0,0,3,4.06A5.57,5.57,0,0,0,19.11,20Z"/><path d="M26.72.24h6.44V10a4.43,4.43,0,0,1,1.31-2,4.06,4.06,0,0,1,2.67-.75q4.14,0,4.14,4.46v8h1.5v.48H35.22V19.8h1.1V11.11A6.16,6.16,0,0,0,36.1,9a.78.78,0,0,0-.78-.47q-.85,0-1.51,1.12a5.32,5.32,0,0,0-.65,2.73V19.8h1.15v.48H26.72V19.8h1.47V.72H26.72Z"/><path d="M49.59,14h.78V11.94a13.27,13.27,0,0,0-.28-3.41A1.08,1.08,0,0,0,49,7.67a1.54,1.54,0,0,0-.87.25.79.79,0,0,0-.39.69,2.66,2.66,0,0,0,.16.89h.67a3.8,3.8,0,0,1,.21,1.35,1.74,1.74,0,0,1-.67,1.36,2.49,2.49,0,0,1-1.68.58q-2.3,0-2.3-2.22,0-3.29,5.58-3.29,3.18,0,4.4,1.08t1.22,4v5.42q0,1.39.78,1.39t1.07-2.75l.4,0a5.39,5.39,0,0,1-.88,3.23,3.23,3.23,0,0,1-2.54.88q-3.21,0-3.69-2a2.88,2.88,0,0,1-1,1.5,3.56,3.56,0,0,1-2,.48q-4,0-4-3.23A2.62,2.62,0,0,1,45,14.71,11.48,11.48,0,0,1,49.59,14Zm-.92,5.08a.55.55,0,0,0,.56.4q.41,0,.78-.68a4.07,4.07,0,0,0,.36-1.88V14.43h-.19q-1.66,0-1.66,2.43v.43A6.62,6.62,0,0,0,48.67,19.08Z"/><path d="M64,7.56V9.67a3.72,3.72,0,0,1,3.69-2.38A4.23,4.23,0,0,1,71.22,9a8.21,8.21,0,0,1,1.27,5,7.51,7.51,0,0,1-1.38,5A5.15,5.15,0,0,1,67,20.55a4.48,4.48,0,0,1-1.92-.32,2.52,2.52,0,0,1-1-1v9.49h3.45v.48H57.58v-.48h1.47V8H57.64V7.56Zm3.1,1.83q-.27-.95-1-.95a1.71,1.71,0,0,0-1.39,1A5.1,5.1,0,0,0,64,12.13V17a3.91,3.91,0,0,0,.45,2,1.45,1.45,0,0,0,1.34.8q.88,0,1.2-1.18a17.86,17.86,0,0,0,.32-4.11V13.09A16.41,16.41,0,0,0,67.07,9.39Z"/><path d="M75.15,18.77a6.8,6.8,0,0,1-1.72-4.94A6.08,6.08,0,0,1,75.36,9a7.25,7.25,0,0,1,4.93-1.68q6.06,0,5.82,6.09H78.58v1a9.13,9.13,0,0,0,.67,4,2.38,2.38,0,0,0,2.32,1.34q3.1,0,4.06-3.31l.48.08a5.52,5.52,0,0,1-1.83,3,6.23,6.23,0,0,1-4,1.07A6.89,6.89,0,0,1,75.15,18.77Zm3.46-5.92h2.75V11.54a11.26,11.26,0,0,0-.25-3,1,1,0,0,0-1-.79A1.19,1.19,0,0,0,79,8.64a8.14,8.14,0,0,0-.36,2.9Z"/><path d="M88.27,19.32A4.42,4.42,0,0,1,87.13,16a4.29,4.29,0,0,1,1.22-3.28,4.81,4.81,0,0,1,3.43-1.15,4.55,4.55,0,0,1,3.3,1.06,4.33,4.33,0,0,1,1.09,3.23q0,4.54-4.52,4.54A4.57,4.57,0,0,1,88.27,19.32Zm4.47-2.55V15.26a12.1,12.1,0,0,0-.19-2.52q-.19-.79-.86-.79a.89.89,0,0,0-.63.22,1.37,1.37,0,0,0-.35.74,13.6,13.6,0,0,0-.16,2.44v1.39a12.69,12.69,0,0,0,.12,2.33,4.06,4.06,0,0,0,.24.64.76.76,0,0,0,.77.43.91.91,0,0,0,.91-.8A12.24,12.24,0,0,0,92.74,16.77Z"/><path d="M102.06,6.81a.86.86,0,0,0-.89.51A4.52,4.52,0,0,0,101,9V11.8h2.35v.32H101V20h2.17v.32H96.66V20h1V12.12h-1V11.8h1v-.07a6.5,6.5,0,0,1,1-3.89,3.81,3.81,0,0,1,3.28-1.33,3.21,3.21,0,0,1,2.17.6,1.81,1.81,0,0,1,.66,1.38,1.55,1.55,0,0,1-.41,1.18,1.5,1.5,0,0,1-1.08.39,1.46,1.46,0,0,1-1-.35,1.08,1.08,0,0,1-.37-.8,3.59,3.59,0,0,1,.11-.88h.68Q103,6.81,102.06,6.81Z"/><path d="M114.63,14.88l2.22-7.69-1.6-5.1h-1.52V1.58H122v.51h-1.58l4,12.64,3.2-12.64h-2.7V1.58h5.34v.51H128.5l-4.92,18.46H121.2l-4-12.08-3.47,12.08h-2.32L104.72,2.08h-1.26V1.58h8.68v.51h-1.87Z"/><path d="M130.41,18.77a6.8,6.8,0,0,1-1.72-4.94A6.08,6.08,0,0,1,130.62,9a7.25,7.25,0,0,1,4.93-1.68q6.07,0,5.82,6.09h-7.53v1a9.13,9.13,0,0,0,.67,4,2.38,2.38,0,0,0,2.32,1.34q3.1,0,4.06-3.31l.48.08a5.52,5.52,0,0,1-1.83,3,6.22,6.22,0,0,1-4,1.07A6.89,6.89,0,0,1,130.41,18.77Zm3.46-5.92h2.75V11.54a11.26,11.26,0,0,0-.25-3,1,1,0,0,0-1-.79,1.18,1.18,0,0,0-1.12.84,8.11,8.11,0,0,0-.36,2.9Z"/><path d="M148.78.24V9.59a3.53,3.53,0,0,1,3.47-2.3q5,0,5,6.65,0,3.39-1.37,5a5.15,5.15,0,0,1-4.13,1.6,4.29,4.29,0,0,1-2.12-.43,2.21,2.21,0,0,1-1-1.42l-.19,1.58h-6.09V19.8h1.47V.72h-1.47V.24Zm3,9.15c-.18-.63-.52-.95-1-.95a1.71,1.71,0,0,0-1.39,1,4.89,4.89,0,0,0-.61,2.65v5a3.8,3.8,0,0,0,.47,2,1.47,1.47,0,0,0,1.34.8q.87,0,1.19-1.18a17.94,17.94,0,0,0,.32-4.11V13.09A16.41,16.41,0,0,0,151.82,9.39Z"/><path d="M.54,13.62l2.72-.11v.21a8.44,8.44,0,0,0-2,.85,1.22,1.22,0,0,0-.53,1.06v.13H7.91v-.92h.23v4H7.91v-.92H.77V18a1.23,1.23,0,0,0,.55,1.07,8.15,8.15,0,0,0,1.95.84v.21L.54,20Z"/><path d="M0,13V10.39H4a1.81,1.81,0,0,1-.8-.53,1.65,1.65,0,0,1-.3-1.09q0-1.68,1.81-1.68H7.94V6.48h.2V9.55h-.2V9.11H4.42a2.51,2.51,0,0,0-.84.09.32.32,0,0,0-.19.32q0,.35.46.61a2.16,2.16,0,0,0,1.11.27h3V9.92h.2V13h-.2v-.6H.2V13Z"/><path d="M7.53,5.56a2.76,2.76,0,0,1-2,.7,2.47,2.47,0,0,1-2-.79,2.94,2.94,0,0,1-.68-2A2.09,2.09,0,0,1,5.34,1.11V4.17h.42A3.72,3.72,0,0,0,7.37,3.9,1,1,0,0,0,7.91,3,1.62,1.62,0,0,0,6.56,1.31l0-.2a2.24,2.24,0,0,1,1.22.74,2.53,2.53,0,0,1,.43,1.61A2.8,2.8,0,0,1,7.53,5.56Zm-2.4-1.4V3H4.59a4.57,4.57,0,0,0-1.2.1.41.41,0,0,0-.32.41A.48.48,0,0,0,3.41,4a3.31,3.31,0,0,0,1.18.15Z"/><path d="M79.18,24l-.06.27-.3,0a1,1,0,0,0-.39.15.77.77,0,0,0-.27.34,3.87,3.87,0,0,0-.23.72l-.87,3.78h-.62L74.17,25.1l-.6,2.63q0,.21-.07.39a2.16,2.16,0,0,0,0,.29.72.72,0,0,0,0,.23.36.36,0,0,0,.09.14.71.71,0,0,0,.3.15l.32.08-.06.27H71.87l.06-.27.32-.05a1,1,0,0,0,.37-.13.78.78,0,0,0,.27-.34,3.61,3.61,0,0,0,.22-.72l.57-2.48,0-.16a.83.83,0,0,0,0-.14.87.87,0,0,0,0-.21.48.48,0,0,0-.1-.19.7.7,0,0,0-.26-.19,1.56,1.56,0,0,0-.36-.11l.07-.27H75l2,3.71.49-2.16c0-.16.06-.29.08-.39a1.76,1.76,0,0,0,0-.28.73.73,0,0,0,0-.23.39.39,0,0,0-.09-.15.72.72,0,0,0-.29-.15l-.32-.08.06-.27Z"/><path d="M89.73,26a3.4,3.4,0,0,1-.25,1.29,3.24,3.24,0,0,1-.7,1.08,3.46,3.46,0,0,1-1.09.75,3.51,3.51,0,0,1-1.42.27,2.45,2.45,0,0,1-1.71-.6,2,2,0,0,1-.67-1.57,3.29,3.29,0,0,1,.27-1.33,3.38,3.38,0,0,1,.75-1.08,3.47,3.47,0,0,1,2.42-1,2.53,2.53,0,0,1,1.72.59A2,2,0,0,1,89.73,26ZM87.79,28a4.56,4.56,0,0,0,.37-1.11,6,6,0,0,0,.12-1.19A1.91,1.91,0,0,0,88,24.61a.87.87,0,0,0-.78-.39,1.21,1.21,0,0,0-.81.3,2.47,2.47,0,0,0-.6.79,4.51,4.51,0,0,0-.37,1.1,5.85,5.85,0,0,0-.13,1.22,1.91,1.91,0,0,0,.26,1.06.87.87,0,0,0,.78.4,1.22,1.22,0,0,0,.81-.31A2.46,2.46,0,0,0,87.79,28Z"/><path d="M104.31,24l-.07.27a1,1,0,0,0-.24.06l-.24.1a1,1,0,0,0-.28.2,1.83,1.83,0,0,0-.21.29l-1.07,1.83-1.48,2.57H100l-.47-3.88-2.14,3.88H96.6q-.16-1.39-.29-2.62t-.2-1.81a.81.81,0,0,0-.08-.29.75.75,0,0,0-.2-.19.7.7,0,0,0-.19-.1l-.24,0,.06-.27h2.75l-.07.27-.42.06a.89.89,0,0,0-.22.07.14.14,0,0,0-.08.08.42.42,0,0,0,0,.1s0,.11,0,.17l0,.21q0,.35.11,1.1c.05.5.11,1.09.18,1.76L99.81,24h.79l.48,3.95.82-1.49.6-1.12c.09-.18.17-.34.24-.49a1,1,0,0,0,.1-.29c0-.08-.07-.14-.2-.19a2.08,2.08,0,0,0-.57-.1l.07-.27Z"/><path d="M111.2,29.29l.06-.27a2.84,2.84,0,0,0,.6-.1c.14,0,.21-.09.21-.14a.77.77,0,0,0,0-.11l0-.11-.19-1H110l-.23.36-.23.38a1.89,1.89,0,0,0-.17.34.63.63,0,0,0,0,.12c0,.07.06.13.17.18a2,2,0,0,0,.53.11l-.06.27h-2.21l.06-.27.27,0a.94.94,0,0,0,.27-.09,1.31,1.31,0,0,0,.29-.21,1.67,1.67,0,0,0,.26-.32l1.38-2.14,1.46-2.28h.73L113,26.7q.19,1.09.33,1.82a.56.56,0,0,0,.07.2.55.55,0,0,0,.17.17.66.66,0,0,0,.22.09l.24,0-.06.27Zm.59-2.12-.32-1.92-1.2,1.92Z"/><path d="M124.68,24.45a1.85,1.85,0,0,1,.65.67,2,2,0,0,1,.23,1,3,3,0,0,1-.28,1.3,2.88,2.88,0,0,1-.79,1,3.56,3.56,0,0,1-1.17.65,4.57,4.57,0,0,1-1.47.23H119.1l.06-.27.28,0,.27-.05a.44.44,0,0,0,.22-.15.6.6,0,0,0,.11-.23l.85-3.68,0-.13a.6.6,0,0,0,0-.08.27.27,0,0,0-.16-.24,1.64,1.64,0,0,0-.51-.14l.06-.27H123a4,4,0,0,1,.85.1A2.63,2.63,0,0,1,124.68,24.45ZM123.58,28a3.5,3.5,0,0,0,.39-1,4.73,4.73,0,0,0,.13-1.1,1.84,1.84,0,0,0-.33-1.15,1.17,1.17,0,0,0-1-.42h-.46l-.91,3.95a1.25,1.25,0,0,0,0,.14.94.94,0,0,0,0,.11.33.33,0,0,0,.17.32A1.08,1.08,0,0,0,122,29a1.55,1.55,0,0,0,.9-.27A2.13,2.13,0,0,0,123.58,28Z"/><path d="M133.43,29.29l.06-.27a2.85,2.85,0,0,0,.6-.1c.14,0,.21-.09.21-.14a.77.77,0,0,0,0-.11l0-.11-.19-1h-1.81l-.23.36-.23.38a2,2,0,0,0-.17.34.83.83,0,0,0,0,.12c0,.07.06.13.18.18a2,2,0,0,0,.53.11l-.06.27h-2.21l.06-.27.27,0a.94.94,0,0,0,.27-.09,1.38,1.38,0,0,0,.29-.21,1.77,1.77,0,0,0,.25-.32l1.38-2.14,1.46-2.28h.73l.47,2.75q.19,1.09.33,1.82a.56.56,0,0,0,.07.2.53.53,0,0,0,.17.17.66.66,0,0,0,.22.09l.24,0-.06.27Zm.59-2.12-.32-1.92-1.2,1.92Z"/><path d="M148.1,24l-.06.27-.23,0a1.29,1.29,0,0,0-.25.1,1.61,1.61,0,0,0-.32.21c-.09.08-.21.19-.33.33l-.67.75-.81.94a2.94,2.94,0,0,0-.4.53,3.18,3.18,0,0,0-.15.54l-.16.69s0,.08,0,.12a.46.46,0,0,0,0,.08.35.35,0,0,0,0,.16.25.25,0,0,0,.13.11l.26.07.28,0-.06.27H142.4l.06-.27.3,0,.29-.05a.5.5,0,0,0,.22-.16.65.65,0,0,0,.11-.24l.22-.95,0-.18a.62.62,0,0,0,0-.14.74.74,0,0,0,0-.2l-.11-.31-.34-1c-.08-.22-.18-.5-.32-.84a1.31,1.31,0,0,0-.17-.32.91.91,0,0,0-.22-.21.69.69,0,0,0-.22-.09l-.24,0,.06-.27H145l-.06.27a2.73,2.73,0,0,0-.57.06c-.12,0-.19.09-.19.15a1.19,1.19,0,0,0,0,.19c0,.09.07.25.14.47s.13.38.22.65l.32.88.86-1,.54-.64a4.49,4.49,0,0,0,.31-.42.3.3,0,0,0,0-.12c0-.08-.06-.13-.18-.17a1.84,1.84,0,0,0-.43-.07l.06-.27Z"/><path d="M154.29,29.43a3.67,3.67,0,0,1-.88-.11,3.07,3.07,0,0,1-.78-.3l-.32.26H152l.39-1.9h.32a2.63,2.63,0,0,0,.16.58,2,2,0,0,0,.31.53,1.52,1.52,0,0,0,.47.4,1.49,1.49,0,0,0,1.51-.1.84.84,0,0,0,.32-.69.71.71,0,0,0-.18-.48,1.46,1.46,0,0,0-.59-.36l-.5-.18-.46-.18a1.37,1.37,0,0,1-.65-.52,1.27,1.27,0,0,1-.22-.71A1.46,1.46,0,0,1,153,25a1.71,1.71,0,0,1,.46-.57,2.19,2.19,0,0,1,.72-.4,2.86,2.86,0,0,1,.95-.15,3.45,3.45,0,0,1,1.48.37l.28-.22h.32l-.39,1.8h-.32a3.88,3.88,0,0,0-.14-.59,1.94,1.94,0,0,0-.25-.5,1.19,1.19,0,0,0-.39-.34,1.26,1.26,0,0,0-1.31.12.79.79,0,0,0-.3.64.67.67,0,0,0,.18.47,1.46,1.46,0,0,0,.58.35l.48.18.48.19a1.68,1.68,0,0,1,.68.48,1.12,1.12,0,0,1,.25.73,1.6,1.6,0,0,1-.18.75,1.84,1.84,0,0,1-.51.6,2.53,2.53,0,0,1-.81.41A3.41,3.41,0,0,1,154.29,29.43Z"/></svg>