<svg id="Layer_1" data-name="Layer 1" xmlns="http://www.w3.org/2000/svg" viewBox="0 0 186.24 225.02"><title>logo</title><polygon points="185.49 197.53 -0.76 197.53 -0.76 8.88 25.18 8.88 25.18 18.72 9.09 18.72 9.09 187.69 175.65 187.69 175.65 18.72 88.46 18.72 88.46 8.88 185.49 8.88 185.49 197.53"/><path d="M33,96.13a8,8,0,0,0,4.72-1.44,5,5,0,0,0,2.05-4.34,5.1,5.1,0,0,0-2.21-4.45,21.13,21.13,0,0,0-6.29-2.69,43,43,0,0,1-5.92-2A15.68,15.68,0,0,1,21.83,79q-3.31-2.77-3.3-8.58a11.17,11.17,0,0,1,3.39-8.16q3.39-3.41,9.25-3.41a22.63,22.63,0,0,1,5.89.83,21.68,21.68,0,0,0,3.81.83q.75,0,1.33-1.07h.59l.37,10.77H42.3a33.08,33.08,0,0,0-5.36-7.44,8.48,8.48,0,0,0-6.08-2.8,7.7,7.7,0,0,0-5.09,1.52A5,5,0,0,0,24,65.5a4.34,4.34,0,0,0,2.16,3.89,19.51,19.51,0,0,0,5.3,2.21q3.14.85,4.13,1.17t2.45.88a12.64,12.64,0,0,1,2.4,1.17,17,17,0,0,1,2,1.55A7.35,7.35,0,0,1,44,78.43a12.2,12.2,0,0,1,1.44,6.08,12.3,12.3,0,0,1-3.6,9.25,13,13,0,0,1-9.46,3.49,35.25,35.25,0,0,1-7-.8q-3.92-.8-4.34-.8-.75,0-1.44,1.6H18.9l-.53-12.69h.91a29.28,29.28,0,0,0,6,8.1A11.1,11.1,0,0,0,33,96.13Z"/><path d="M48.17,56.73H61V76.24a8.87,8.87,0,0,1,2.61-3.94A8.09,8.09,0,0,1,69,70.81q8.26,0,8.26,8.9v16h3v1H65.12v-1h2.19V78.43a12.31,12.31,0,0,0-.43-4.13,1.55,1.55,0,0,0-1.55-.93q-1.71,0-3,2.24A10.62,10.62,0,0,0,61,81V95.76h2.29v1H48.17v-1H51.1V57.69H48.17Z"/><path d="M93.8,84.19h1.55v-4.1a26.48,26.48,0,0,0-.56-6.8,2.16,2.16,0,0,0-2.16-1.73,3.09,3.09,0,0,0-1.73.51,1.58,1.58,0,0,0-.77,1.39,5.35,5.35,0,0,0,.32,1.79h1.33a7.58,7.58,0,0,1,.43,2.69,3.48,3.48,0,0,1-1.33,2.72,5,5,0,0,1-3.36,1.15q-4.59,0-4.58-4.42,0-6.56,11.14-6.56,6.34,0,8.77,2.16t2.43,7.92V91.7q0,2.77,1.55,2.77,1.81,0,2.13-5.49l.8.05q-.21,4.69-1.76,6.45t-5.06,1.76q-6.4,0-7.36-3.95a5.74,5.74,0,0,1-2.08,3,7.11,7.11,0,0,1-4.05,1q-7.89,0-7.89-6.45,0-3.78,3-5.2T93.8,84.19ZM92,94.32a1.1,1.1,0,0,0,1.12.8q.83,0,1.55-1.36A8.12,8.12,0,0,0,95.35,90V85H95q-3.31,0-3.31,4.85v.85A13.15,13.15,0,0,0,92,94.32Z"/><path d="M122.48,71.34v4.21a7.41,7.41,0,0,1,7.36-4.74A8.45,8.45,0,0,1,137,74.11q2.53,3.31,2.53,10t-2.75,9.92q-2.75,3.2-8.24,3.2a8.91,8.91,0,0,1-3.84-.64,5,5,0,0,1-2.08-2v13.81h6.88v1H109.74v-1h2.93V72.3h-2.83v-1ZM128.66,75q-.53-1.89-2.08-1.89t-2.77,2a10.17,10.17,0,0,0-1.23,5.36v9.76a7.77,7.77,0,0,0,.91,3.89,2.89,2.89,0,0,0,2.67,1.6q1.76,0,2.4-2.35a35.67,35.67,0,0,0,.64-8.21V82.38A32.79,32.79,0,0,0,128.66,75Z"/><path d="M144.79,93.7q-3.44-3.54-3.44-9.86t3.86-9.68a14.45,14.45,0,0,1,9.84-3.36q12.1,0,11.62,12.15h-15V85q0,5.23,1.33,7.89a4.75,4.75,0,0,0,4.64,2.67q6.18,0,8.1-6.61l1,.16a11,11,0,0,1-3.65,6q-2.64,2.13-7.92,2.13Q148.23,97.25,144.79,93.7Zm6.9-11.81h5.49V79.28a22.51,22.51,0,0,0-.51-5.89,2,2,0,0,0-2-1.57,2.37,2.37,0,0,0-2.24,1.68,16.24,16.24,0,0,0-.72,5.78Z"/><path d="M20.9,150.71q-2.59-2.59-2.59-7.42t2.77-7.44q2.77-2.61,7.78-2.61t7.48,2.41q2.46,2.41,2.47,7.34,0,10.31-10.27,10.31Q23.49,153.3,20.9,150.71ZM31,144.93v-3.44a27.49,27.49,0,0,0-.42-5.72q-.42-1.8-2-1.8a2,2,0,0,0-1.43.51,3.1,3.1,0,0,0-.79,1.68,30.73,30.73,0,0,0-.36,5.54v3.15a28.68,28.68,0,0,0,.26,5.29,9,9,0,0,0,.55,1.46,1.72,1.72,0,0,0,1.74,1,2.07,2.07,0,0,0,2.06-1.82A27.92,27.92,0,0,0,31,144.93Z"/><path d="M52.18,117.49a2,2,0,0,0-2,1.15,10.26,10.26,0,0,0-.48,3.7v6.47H55v.73H49.68V153h4.93v.73H39.94V153h2.22V129.53H39.82v-.73h2.34v-.16q0-5.82,2.22-8.83t7.44-3q3.43,0,4.93,1.35a4.12,4.12,0,0,1,1.5,3.13,3.53,3.53,0,0,1-.93,2.67,3.42,3.42,0,0,1-2.47.89,3.3,3.3,0,0,1-2.36-.79,2.44,2.44,0,0,1-.83-1.82,8.22,8.22,0,0,1,.24-2h1.54Q54.24,117.49,52.18,117.49Z"/><path d="M82.6,142.71,87,127.45l-3.18-10.12h-3v-1H97.22v1H94.09L102,142.39l6.36-25.06H103v-1h10.59v1h-3.5l-9.75,36.61H95.63L87.79,130,80.9,153.94H76.29L62.95,117.33H60.46v-1H77.67v1H74Z"/><path d="M113.88,150.41q-3.42-3.52-3.42-9.8T114.3,131a14.36,14.36,0,0,1,9.77-3.34q12,0,11.55,12.08H120.69v2.07q0,5.19,1.32,7.84a4.72,4.72,0,0,0,4.61,2.65q6.14,0,8.05-6.57l1,.16a11,11,0,0,1-3.63,5.93q-2.62,2.12-7.87,2.12Q117.3,153.94,113.88,150.41Zm6.86-11.73h5.46v-2.6a22.42,22.42,0,0,0-.5-5.85,2,2,0,0,0-2-1.56,2.35,2.35,0,0,0-2.23,1.67,16.13,16.13,0,0,0-.71,5.75Z"/><path d="M150.3,113.68v18.54a7,7,0,0,1,6.89-4.56q9.91,0,9.91,13.19,0,6.73-2.73,9.91t-8.18,3.18a8.49,8.49,0,0,1-4.21-.85,4.39,4.39,0,0,1-2-2.81l-.37,3.13H137.53v-1h2.91V114.63h-2.91v-1Zm6,18.14q-.53-1.88-2.07-1.88a3.38,3.38,0,0,0-2.75,1.91,9.68,9.68,0,0,0-1.22,5.24v9.85a7.55,7.55,0,0,0,.93,3.87,2.91,2.91,0,0,0,2.65,1.59q1.72,0,2.36-2.33a35.5,35.5,0,0,0,.64-8.16v-2.75A32.6,32.6,0,0,0,156.34,131.82Z"/><path d="M48.28,1.4l.28,7.1H48a22,22,0,0,0-2.2-5.13A3.18,3.18,0,0,0,43,2h-.34v18.6h2.4v.59H34.79v-.59h2.4V2h-.37A3.21,3.21,0,0,0,34,3.42a21.27,21.27,0,0,0-2.18,5.07h-.54l.28-7.1Z"/><path d="M49.89,0H56.7V10.33a4.7,4.7,0,0,1,1.39-2.09,4.29,4.29,0,0,1,2.83-.79q4.38,0,4.38,4.72v8.51h1.58v.51h-8v-.51H60V11.49a6.53,6.53,0,0,0-.23-2.19A.82.82,0,0,0,59,8.8q-.91,0-1.6,1.19a5.63,5.63,0,0,0-.69,2.88v7.8h1.22v.51h-8v-.51h1.55V.49H49.89Z"/><path d="M69.27,19.59a7.2,7.2,0,0,1-1.82-5.23,6.43,6.43,0,0,1,2-5.13,7.67,7.67,0,0,1,5.22-1.78q6.42,0,6.16,6.45h-8V15a9.67,9.67,0,0,0,.71,4.18,2.52,2.52,0,0,0,2.46,1.41q3.28,0,4.3-3.5l.51.08a5.84,5.84,0,0,1-1.94,3.17,6.58,6.58,0,0,1-4.2,1.13A7.29,7.29,0,0,1,69.27,19.59Zm3.66-6.26h2.91V11.94a11.91,11.91,0,0,0-.27-3.12A1.06,1.06,0,0,0,74.5,8a1.26,1.26,0,0,0-1.19.89,8.61,8.61,0,0,0-.38,3.07Z"/><path d="M22.14,211.43l-.27.92a2.19,2.19,0,0,0-1.28.48,4,4,0,0,0-.89,1.81L16.48,225.1H15.21l-4.58-10.17-2.11,6.93a4.16,4.16,0,0,0-.21,1,1,1,0,0,0,.52.93,2.46,2.46,0,0,0,1.13.26l-.29.92H5.11l.28-.92a1.87,1.87,0,0,0,1.36-.81,6.48,6.48,0,0,0,.75-1.73l2.44-8-.22-.37a1.54,1.54,0,0,0-.63-.66A3.57,3.57,0,0,0,8,212.35l.29-.92h3.69l4.54,10.11,2-6.37q.06-.21.16-.51t.17-.57a2.07,2.07,0,0,0,.07-.49,1.2,1.2,0,0,0-.38-.84,1.79,1.79,0,0,0-1.32-.4l.29-.92Z"/><path d="M44.38,216.79a7.39,7.39,0,0,1-.63,2.88A9.59,9.59,0,0,1,42,222.42a9,9,0,0,1-2.79,2.05,8.19,8.19,0,0,1-3.57.78,6.17,6.17,0,0,1-3.37-.83,4.82,4.82,0,0,1-1.88-2.1,6.19,6.19,0,0,1-.57-2.57,8.12,8.12,0,0,1,1.11-4,9.2,9.2,0,0,1,3.13-3.3,8.36,8.36,0,0,1,4.62-1.3,6,6,0,0,1,3.29.82,4.79,4.79,0,0,1,1.86,2.09A6.46,6.46,0,0,1,44.38,216.79Zm-2.77-1.37q0-3.3-3.05-3.3a4.41,4.41,0,0,0-1.55.28,4.28,4.28,0,0,0-1.42.91,6.47,6.47,0,0,0-1.21,1.6A18.56,18.56,0,0,0,33.1,218a10.44,10.44,0,0,0-.55,3.17q0,3.19,3,3.19a4.18,4.18,0,0,0,2.84-1,7.89,7.89,0,0,0,2-2.9A13.21,13.21,0,0,0,41.6,215.41Z"/><path d="M74,211.43l-.28.92a2.92,2.92,0,0,0-1.2.75,10,10,0,0,0-1.22,1.72l-6.33,10.44H63.39l.29-10.07-6.53,10.07H55.6l.66-11.75q0-.76-.29-1a1.68,1.68,0,0,0-.92-.2l.29-.92h5.51l-.27.92a2.43,2.43,0,0,0-1.26.24,1.2,1.2,0,0,0-.42,1l-.45,7.89,6.47-10.07h1.43L66.1,221.5l4.3-7.19.19-.33a2.65,2.65,0,0,0,.16-.35.92.92,0,0,0,.06-.31.75.75,0,0,0-.46-.75,2.48,2.48,0,0,0-1-.2l.29-.92Z"/><path d="M91.07,224.08l-.27.92H84.63l.28-.92a3.12,3.12,0,0,0,1.19-.18,1.1,1.1,0,0,0,.6-.66,4.06,4.06,0,0,0,.18-1.38v-1.7H82.62l-1.46,2.13a2.55,2.55,0,0,0-.53,1.14q0,.64,1.23.64h.57l-.28.92H77.29l.29-.92a2.3,2.3,0,0,0,1.38-.69,11.68,11.68,0,0,0,1.5-1.78l7.35-10.43h1.74l-.14,11.31a2.5,2.5,0,0,0,.15,1,.86.86,0,0,0,.5.45A3,3,0,0,0,91.07,224.08ZM87,213.93l-3.69,5.31h3.59Z"/><path d="M114.45,217.09a9,9,0,0,1-.18,1.78,8,8,0,0,1-.59,1.78,7.25,7.25,0,0,1-1.11,1.69,7.8,7.8,0,0,1-1.67,1.44,6.74,6.74,0,0,1-1.91.84,10.58,10.58,0,0,1-1.92.33q-.91.06-2.09.06H99.6l.29-.92a1.19,1.19,0,0,0,1-.38,3.75,3.75,0,0,0,.52-1.14l2.59-8.39a4,4,0,0,0,.18-.88q0-.58-.36-.74a2.6,2.6,0,0,0-.91-.19l.27-.92H108a14.12,14.12,0,0,1,2.06.13,4.87,4.87,0,0,1,1.73.63,4.64,4.64,0,0,1,2.18,2.26A7.13,7.13,0,0,1,114.45,217.09Zm-2.89-.9a5,5,0,0,0-.34-2,2.61,2.61,0,0,0-.88-1.14,3.07,3.07,0,0,0-1.18-.5,7.28,7.28,0,0,0-1.4-.13h-.49l-3,9.77a5,5,0,0,0-.18.86q0,1,1.7,1a4.46,4.46,0,0,0,3-1,7,7,0,0,0,1.87-2.62,10.48,10.48,0,0,0,.71-2.41A12.32,12.32,0,0,0,111.56,216.18Z"/><path d="M135,224.08l-.27.92h-6.16l.28-.92a3.12,3.12,0,0,0,1.19-.18,1.1,1.1,0,0,0,.6-.66,4.06,4.06,0,0,0,.18-1.38v-1.7h-4.26l-1.46,2.13a2.55,2.55,0,0,0-.53,1.14q0,.64,1.23.64h.57l-.28.92h-4.86l.29-.92a2.3,2.3,0,0,0,1.38-.69,11.68,11.68,0,0,0,1.5-1.78l7.35-10.43h1.74l-.14,11.31a2.5,2.5,0,0,0,.15,1,.86.86,0,0,0,.5.45A3,3,0,0,0,135,224.08Zm-4.08-10.15-3.69,5.31h3.59Z"/><path d="M157.31,211.43l-.22.92a2.72,2.72,0,0,0-1,.18,2.79,2.79,0,0,0-.92.67,11.58,11.58,0,0,0-1.07,1.32l-3.3,4.57-1,3.14a3.52,3.52,0,0,0-.19.88.77.77,0,0,0,.27.65,1.34,1.34,0,0,0,.65.26,7.13,7.13,0,0,0,.92.05l-.28.92h-6.68l.29-.92A4.5,4.5,0,0,0,146,224a1,1,0,0,0,.57-.39,4.25,4.25,0,0,0,.44-1L148,219.1l-1.53-5.47a3.54,3.54,0,0,0-.31-.79.9.9,0,0,0-.49-.36,3.08,3.08,0,0,0-1-.12l.26-.92h6l-.28.92a3.16,3.16,0,0,0-1.11.16.74.74,0,0,0-.43.79,3.42,3.42,0,0,0,.14.75l1.09,4,2.31-3.26c.2-.29.35-.51.45-.68a2.41,2.41,0,0,0,.23-.46,1.14,1.14,0,0,0,.08-.38q0-.6-.4-.75a2.84,2.84,0,0,0-1-.15l.26-.92Z"/><path d="M175.53,211.43l-.61,4.06h-1a7.84,7.84,0,0,0-.34-1.42,3.21,3.21,0,0,0-.87-1.3,2.44,2.44,0,0,0-1.75-.6,2.27,2.27,0,0,0-1.5.49,1.64,1.64,0,0,0-.59,1.33,2.14,2.14,0,0,0,.27,1.06,4.68,4.68,0,0,0,.76,1q.48.49,1.14,1.05a11.35,11.35,0,0,1,1.91,2,3.56,3.56,0,0,1,.65,2.12,3.9,3.9,0,0,1-.53,1.95,4.11,4.11,0,0,1-1.54,1.53,4.73,4.73,0,0,1-3.49.44,4.18,4.18,0,0,1-1.11-.48,5.75,5.75,0,0,1-1.06-.85,4.53,4.53,0,0,0-.64,1.13h-.94l.64-4.73h.94a5.74,5.74,0,0,0,.36,1.93,3.41,3.41,0,0,0,.83,1.27,3.25,3.25,0,0,0,2.19.89,2.06,2.06,0,0,0,1.06-.27,2,2,0,0,0,.73-.74,2,2,0,0,0,.27-1,2.14,2.14,0,0,0-.21-1,3.62,3.62,0,0,0-.62-.85q-.41-.43-1.42-1.38a10.25,10.25,0,0,1-1.79-2.05,3.44,3.44,0,0,1-.5-1.78,3.71,3.71,0,0,1,.57-2,4.27,4.27,0,0,1,1.54-1.48,4.07,4.07,0,0,1,2-.55,4.2,4.2,0,0,1,3,1.29l.17-.23c.07-.09.15-.2.22-.32a4.47,4.47,0,0,0,.26-.5Z"/></svg>