<svg id="Layer_1" data-name="Layer 1" xmlns="http://www.w3.org/2000/svg" viewBox="0 0 94 88.47"><title>pinterest</title><path d="M43.76,59.45a9.59,9.59,0,0,0,8.69,3.85c6.07-.34,10.36-3.51,13.34-8.65a24.27,24.27,0,0,0,2.93-9A26.54,26.54,0,0,0,69,39.87a17.34,17.34,0,0,0-4-9.74,19.22,19.22,0,0,0-11.57-6.84,25,25,0,0,0-17.3,2.57A19.71,19.71,0,0,0,26,39.45a16.78,16.78,0,0,0,1.18,10.89,9.43,9.43,0,0,0,4.92,4.84,1.14,1.14,0,0,0,1.77-.85c.22-.83.41-1.66.64-2.48a1.68,1.68,0,0,0-.38-1.7,8.39,8.39,0,0,1-1.91-3.71,13.58,13.58,0,0,1,.37-7.26c1.94-6,6.12-9.57,12.35-10.63a16.22,16.22,0,0,1,8.9.85A11,11,0,0,1,61,38.51a22.08,22.08,0,0,1-.17,6.57,21.44,21.44,0,0,1-2.43,7.5,10.86,10.86,0,0,1-3.69,4.08,6.58,6.58,0,0,1-5.18.92,4.85,4.85,0,0,1-3.6-6.17c.64-2.39,1.39-4.75,2.06-7.14a13.58,13.58,0,0,0,.72-4.37,6.84,6.84,0,0,0-.33-1.84,4.2,4.2,0,0,0-5.59-2.52,6.29,6.29,0,0,0-3.59,3.38,11,11,0,0,0-1,6.31,12.92,12.92,0,0,0,.83,3.3,1.05,1.05,0,0,1,0,.59q-2,8.57-4,17.15A27.16,27.16,0,0,0,34.43,73c0,.18,0,.36,0,.54-12-4.85-22.11-19.3-18.51-36.17A32.19,32.19,0,1,1,38.32,75.05a.89.89,0,0,1,.07-.17,28.71,28.71,0,0,0,3.88-9.57c.41-1.84.92-3.66,1.38-5.5C43.68,59.7,43.72,59.58,43.76,59.45Z"/></svg>