<svg id="Layer_1" data-name="Layer 1" xmlns="http://www.w3.org/2000/svg" viewBox="0 0 94 88.47"><title>retry-fail</title><path d="M43.85,55.9a5.35,5.35,0,0,0-5.42,5.38,5.12,5.12,0,0,0,5.28,5.25,5.05,5.05,0,0,0,5.47-5.19A5.31,5.31,0,0,0,43.85,55.9Z"/><path d="M39.87,46.75a22.49,22.49,0,0,0,1,4.42,2.47,2.47,0,0,0,2.57,1.57,2.74,2.74,0,0,0,2.84-1.48A7.7,7.7,0,0,0,47,49c.69-5.89,1.32-11.79,2-18a18.17,18.17,0,0,0-.72-4.17,4.38,4.38,0,0,0-2.38-2.31c-3.3-1.13-6.61.49-7.19,3.34a9.2,9.2,0,0,0-.14,2.5C39,35.82,39.37,41.28,39.87,46.75Z"/><path d="M85.47,50.09l5.07-6.19-13-10.65a4,4,0,0,0-5-.09L58.32,44l4.83,6.38,6.77-5.13a26.22,26.22,0,0,1-6.85,17l0,.05c-.22.24-.45.48-.68.71l-.16.16-.63.6-.23.22-.63.55-.26.22-.71.56-.2.15q-.45.34-.92.66h0a26.08,26.08,0,0,1-32.51-2.4l-.22-.21-.62-.61-.41-.43L24.45,62l-.51-.59-.28-.33-.54-.69-.23-.3-.51-.72-.22-.33-.44-.69-.26-.42-.35-.61-.31-.56-.26-.5c-.12-.24-.24-.49-.35-.73L20,55.17q-.2-.45-.38-.9l-.1-.25q-.2-.51-.37-1l-.07-.19c-.12-.35-.22-.7-.32-1.06l-.07-.24c-.09-.32-.17-.64-.24-1l-.09-.38c-.06-.26-.11-.52-.15-.78s-.07-.39-.1-.58-.06-.38-.08-.57-.07-.53-.1-.8,0-.25,0-.37c0-.33-.06-.66-.08-1,0-.08.1-.16.1-.23,0-.37.08-.74.08-1.12V44.5c0-.37-.1-.74-.08-1.11,0-.09,0-.18,0-.27,0-.33,0-.66,0-1,0-.13,0-.27,0-.4s.06-.54.1-.81,0-.37.08-.55.07-.43.11-.64.09-.46.14-.68l.11-.49c.06-.26.13-.53.2-.79l.11-.39c.08-.28.16-.56.25-.84l.12-.36c.09-.27.19-.55.29-.82l.16-.41c.1-.24.19-.48.3-.72l.25-.55.25-.54q.19-.39.4-.77l.14-.27A25.92,25.92,0,0,1,43.86,18.74c.63,0,1.25.26,1.87.26h0a12.38,12.38,0,0,1,1.69,0c.08,0,.16-.08.23-.07.48.07,1,.11,1.42.21.14,0,.29,0,.43.06a25.94,25.94,0,0,1,8.1,3.3l5.25-7.75a35.33,35.33,0,0,0-10.46-4.49v0L52,10.14l-1.2-.26c-.45-.09-.9-.18-1.36-.25l-.94-.13q-.86-.12-1.73-.19l-.62,0q-1-.07-2.11-.08h-.4a35,35,0,0,0-5,.38l-.3,0q-.76.12-1.53.27l-.48.1q-1.32.28-2.63.67l-.51.15-.62.18a35.27,35.27,0,0,0-19,15.18l-.2.34c-.2.34-.4.68-.59,1s-.27.51-.4.76l-.34.66c-.18.36-.35.72-.51,1.09l-.17.38c-.19.43-.37.86-.54,1.3l-.09.23c-.18.46-.34.93-.5,1.4l-.07.2C10,34,9.9,34.5,9.77,35l-.08.28c-.12.43-.23.86-.33,1.29l-.1.45q-.12.56-.23,1.13-.06.34-.12.68t-.14.91q-.07.47-.12.94t-.07.69q-.06.6-.09,1.2c0,.16,0,.32,0,.48q0,.7,0,1.4c0,.07,0,.14,0,.21s0,.1,0,.15c0,.48,0,1,0,1.44,0,.13,0,.26,0,.39,0,.43.06.87.1,1.3,0,.18,0,.37.05.55,0,.36.09.71.14,1.07s.07.53.12.79.09.53.14.8.13.7.21,1c0,.18.08.37.13.55.1.42.2.84.32,1.26l.11.38q.2.69.42,1.37l0,.15.07.2q.23.66.48,1.31l.18.45q.23.56.47,1.11l.28.63.41.86.42.82.33.6q.28.5.57,1l.24.39q.35.57.72,1.12l.16.24q.41.6.84,1.18l.13.17q.45.59.92,1.17l.16.19c.3.36.61.72.92,1.06l.29.31c.27.29.55.58.83.87l.53.52.62.59c.29.27.6.54.9.8l.29.25a35.4,35.4,0,0,0,48-2.14l.11-.11.5-.54.65-.69,0,0a35.31,35.31,0,0,0,8.84-20.5s0-.2,0-.21,0-.45,0-.45h0a16.06,16.06,0,0,0,.11-2.17Z"/></svg>