<svg id="Layer_1" data-name="Layer 1" xmlns="http://www.w3.org/2000/svg" viewBox="0 0 94 88.47"><title>twitter</title><path d="M80.6,17.7c-.92,3-2.68,5-5,7.08,2.47.24,4.26-.9,6.51-1.34a16.16,16.16,0,0,1-4.83,5.64,4.1,4.1,0,0,0-1.73,3.63c-.27,19-13.21,35.1-31.61,39a39,39,0,0,1-29.78-5.26c7.13.22,13.7-1.31,19.69-5.8-1.61-.45-3-.72-4.3-1.23a14.27,14.27,0,0,1-7.6-7c-.6-1.16-1-2.25,1.1-1.78a7.19,7.19,0,0,0,3.61-.4c-4.29-1.59-7.44-4.1-9.18-8.13A11.64,11.64,0,0,1,17.06,41c-.43-1.37-1.27-3.1-.5-4.12s2.17.63,3.41.66A15.27,15.27,0,0,1,22.2,38c-6-5.6-7.2-11.71-4-19a67.26,67.26,0,0,0,7.15,6.69,39.89,39.89,0,0,0,20.07,7.9c1.41.14,1.9,0,1.77-1.73-.46-5.87,1.87-10.55,7-13.49a13.3,13.3,0,0,1,15.54.91,4.53,4.53,0,0,0,5,.78Z"/></svg>